<svg width="29" height="48" viewBox="0 0 29 48" fill="none" xmlns="http://www.w3.org/2000/svg">
<path d="M4.30607 8.72739H24.6993C26.9578 8.72739 28.7487 10.3963 28.7487 12.4078V35.5924C28.7487 37.6039 26.9578 39.2728 24.6993 39.2728H4.30607C2.04753 39.2728 0.256684 37.6039 0.256684 35.5924V12.4078C0.256684 10.3963 2.04753 8.72739 4.30607 8.72739Z" fill="#F3F3F3" stroke="#D4D4D4" stroke-width="0.513369"/>
<path d="M5.39337 6.99719L5.39336 6.99723C5.37728 7.09256 5.41203 7.19527 5.51136 7.28506C5.61206 7.37607 5.77222 7.44385 5.96588 7.44385H14.5018H23.0377C23.2316 7.44385 23.3917 7.37619 23.4923 7.28534C23.5914 7.19584 23.6264 7.09318 23.6102 6.99719H5.39337ZM5.39337 6.99719L6.36063 1.25988C6.36063 1.25987 6.36063 1.25986 6.36064 1.25986C6.45049 0.727184 7.05658 0.256684 7.86531 0.256684H14.5018H21.1383C21.947 0.256684 22.5531 0.727184 22.643 1.25986C22.643 1.25986 22.643 1.25987 22.643 1.25988L23.6102 6.99713L5.39337 6.99719Z" fill="#D4D4D4" stroke="#F3F3F3" stroke-width="0.513369"/>
<path d="M23.6105 41.0028L23.6105 41.0028C23.6266 40.9074 23.5919 40.8047 23.4925 40.7149C23.3918 40.6239 23.2317 40.5561 23.038 40.5561L14.5021 40.5561L5.9662 40.5561C5.77234 40.5561 5.6122 40.6238 5.5116 40.7147C5.41249 40.8042 5.37755 40.9068 5.39368 41.0028L23.6105 41.0028ZM23.6105 41.0028L22.6433 46.7401C22.6433 46.7401 22.6433 46.7401 22.6433 46.7401C22.5534 47.2728 21.9473 47.7433 21.1386 47.7433L14.5021 47.7433L7.86562 47.7433C7.05689 47.7433 6.45081 47.2728 6.36095 46.7401C6.36095 46.7401 6.36095 46.7401 6.36095 46.7401L5.39369 41.0029L23.6105 41.0028Z" fill="#D4D4D4" stroke="#F3F3F3" stroke-width="0.513369"/>
<path d="M6.87995 12.0643H22.1257C23.8202 12.0643 25.1552 13.3194 25.1552 14.8222V32.9214C25.1552 34.4241 23.8202 35.6793 22.1257 35.6793H6.87995C5.1855 35.6793 3.85043 34.4241 3.85043 32.9214V14.8222C3.85043 13.3194 5.1855 12.0643 6.87995 12.0643Z" fill="#D4D4D4" stroke="white" stroke-width="0.513369"/>
</svg>
