<svg width="140" height="27" viewBox="0 0 140 27" fill="none" xmlns="http://www.w3.org/2000/svg">
<path d="M128.747 26.3089C127.305 26.3089 125.999 25.9381 124.829 25.1965C123.667 24.4467 122.744 23.3466 122.06 21.8964C121.385 20.438 121.047 18.6499 121.047 16.5323C121.047 14.3569 121.397 12.5483 122.097 11.1063C122.798 9.65611 123.729 8.57256 124.891 7.85569C126.061 7.13059 127.342 6.76803 128.735 6.76803C129.798 6.76803 130.683 6.94931 131.392 7.31186C132.109 7.66618 132.686 8.11113 133.122 8.64672C133.567 9.17407 133.905 9.69318 134.136 10.2041H134.297V0.687012H139.549V25.9999H134.358V22.9594H134.136C133.889 23.4867 133.539 24.0099 133.085 24.5291C132.64 25.0399 132.059 25.4643 131.343 25.8021C130.634 26.14 129.769 26.3089 128.747 26.3089ZM130.416 22.1189C131.264 22.1189 131.981 21.8882 132.566 21.4268C133.159 20.9571 133.613 20.302 133.926 19.4615C134.247 18.6211 134.408 17.6364 134.408 16.5076C134.408 15.3787 134.251 14.3981 133.938 13.5659C133.625 12.7337 133.172 12.091 132.579 11.6378C131.985 11.1846 131.264 10.958 130.416 10.958C129.55 10.958 128.821 11.1928 128.228 11.6625C127.635 12.1322 127.186 12.7831 126.881 13.6154C126.576 14.4476 126.423 15.4117 126.423 16.5076C126.423 17.6117 126.576 18.5881 126.881 19.4368C127.194 20.2773 127.643 20.9365 128.228 21.4144C128.821 21.8841 129.55 22.1189 130.416 22.1189Z" fill="#FEFFFE"/>
<path d="M106.975 26.3583C105.764 26.3583 104.685 26.1482 103.737 25.728C102.79 25.2995 102.04 24.6692 101.488 23.8369C100.944 22.9965 100.672 21.95 100.672 20.6976C100.672 19.6429 100.866 18.7571 101.253 18.0402C101.64 17.3233 102.167 16.7465 102.835 16.3098C103.502 15.8731 104.26 15.5435 105.109 15.321C105.966 15.0986 106.864 14.942 107.803 14.8514C108.908 14.736 109.798 14.6289 110.473 14.53C111.149 14.4229 111.639 14.2663 111.944 14.0603C112.249 13.8544 112.401 13.5495 112.401 13.1457V13.0716C112.401 12.2888 112.154 11.6831 111.66 11.2547C111.174 10.8262 110.481 10.612 109.583 10.612C108.636 10.612 107.882 10.8221 107.321 11.2423C106.761 11.6543 106.39 12.1734 106.209 12.7996L101.339 12.4041C101.587 11.2506 102.073 10.2535 102.798 9.41306C103.523 8.56436 104.458 7.91341 105.603 7.46021C106.757 6.99878 108.092 6.76807 109.608 6.76807C110.663 6.76807 111.672 6.89166 112.636 7.13886C113.608 7.38606 114.47 7.76921 115.219 8.28832C115.977 8.80743 116.575 9.47486 117.012 10.2906C117.448 11.0981 117.667 12.0663 117.667 13.1952V25.9999H112.673V23.3673H112.525C112.22 23.9605 111.812 24.4838 111.301 24.937C110.79 25.3819 110.177 25.7321 109.46 25.9876C108.743 26.2347 107.915 26.3583 106.975 26.3583ZM108.483 22.7246C109.258 22.7246 109.942 22.5721 110.535 22.2673C111.128 21.9541 111.594 21.5339 111.932 21.0066C112.269 20.4792 112.438 19.8818 112.438 19.2144V17.1997C112.274 17.3069 112.047 17.4057 111.759 17.4964C111.478 17.5788 111.161 17.6571 110.807 17.7312C110.453 17.7971 110.098 17.8589 109.744 17.9166C109.39 17.966 109.068 18.0114 108.78 18.0526C108.162 18.1432 107.622 18.2874 107.161 18.4852C106.699 18.6829 106.341 18.9507 106.085 19.2885C105.83 19.6181 105.702 20.0301 105.702 20.5245C105.702 21.2414 105.962 21.7893 106.481 22.1684C107.008 22.5392 107.676 22.7246 108.483 22.7246Z" fill="#FEFFFE"/>
<path d="M88.7971 26.3707C86.8772 26.3707 85.2169 25.9628 83.8161 25.1471C82.4236 24.3231 81.3483 23.1778 80.5902 21.7111C79.8322 20.2361 79.4531 18.5264 79.4531 16.5817C79.4531 14.6207 79.8322 12.9068 80.5902 11.4401C81.3483 9.96513 82.4236 8.81979 83.8161 8.00405C85.2169 7.18006 86.8772 6.76807 88.7971 6.76807C90.717 6.76807 92.3732 7.18006 93.7658 8.00405C95.1665 8.81979 96.246 9.96513 97.004 11.4401C97.7621 12.9068 98.1411 14.6207 98.1411 16.5817C98.1411 18.5264 97.7621 20.2361 97.004 21.7111C96.246 23.1778 95.1665 24.3231 93.7658 25.1471C92.3732 25.9628 90.717 26.3707 88.7971 26.3707ZM88.8218 22.292C89.6953 22.292 90.4245 22.0448 91.0095 21.5504C91.5946 21.0478 92.0354 20.3638 92.332 19.4987C92.6369 18.6335 92.7893 17.6488 92.7893 16.5447C92.7893 15.4405 92.6369 14.4559 92.332 13.5907C92.0354 12.7255 91.5946 12.0416 91.0095 11.5389C90.4245 11.0363 89.6953 10.785 88.8218 10.785C87.9402 10.785 87.1986 11.0363 86.5971 11.5389C86.0038 12.0416 85.5547 12.7255 85.2499 13.5907C84.9532 14.4559 84.8049 15.4405 84.8049 16.5447C84.8049 17.6488 84.9532 18.6335 85.2499 19.4987C85.5547 20.3638 86.0038 21.0478 86.5971 21.5504C87.1986 22.0448 87.9402 22.292 88.8218 22.292Z" fill="#FEFFFE"/>
<path d="M66.8594 25.9997V7.01508H71.964V10.3275H72.1617C72.5078 9.1492 73.0887 8.2593 73.9045 7.65779C74.7202 7.04804 75.6596 6.74316 76.7225 6.74316C76.9862 6.74316 77.2704 6.75964 77.5753 6.7926C77.8802 6.82556 78.148 6.87088 78.3787 6.92856V11.6006C78.1315 11.5264 77.7896 11.4605 77.3528 11.4028C76.9161 11.3451 76.5165 11.3163 76.1539 11.3163C75.3794 11.3163 74.6872 11.4852 74.0775 11.823C73.476 12.1526 72.9981 12.6141 72.6438 13.2073C72.2977 13.8006 72.1246 14.4845 72.1246 15.2591V25.9997H66.8594Z" fill="#FEFFFE"/>
<path d="M52.0847 26.3583C50.8735 26.3583 49.7941 26.1482 48.8465 25.728C47.8989 25.2995 47.1491 24.6692 46.597 23.8369C46.0532 22.9965 45.7812 21.95 45.7812 20.6976C45.7812 19.6429 45.9749 18.7571 46.3622 18.0402C46.7494 17.3233 47.2768 16.7465 47.9442 16.3098C48.6116 15.8731 49.3697 15.5435 50.2184 15.321C51.0754 15.0986 51.9735 14.942 52.9129 14.8514C54.017 14.736 54.9069 14.6289 55.5826 14.53C56.2582 14.4229 56.7485 14.2663 57.0534 14.0603C57.3583 13.8544 57.5107 13.5495 57.5107 13.1457V13.0716C57.5107 12.2888 57.2635 11.6831 56.7691 11.2547C56.283 10.8262 55.5908 10.612 54.6927 10.612C53.7451 10.612 52.9911 10.8221 52.4308 11.2423C51.8705 11.6543 51.4997 12.1734 51.3184 12.7996L46.4487 12.4041C46.6959 11.2506 47.182 10.2535 47.9071 9.41306C48.6322 8.56436 49.5675 7.91341 50.7128 7.46021C51.8664 6.99878 53.2012 6.76807 54.7174 6.76807C55.7721 6.76807 56.7815 6.89166 57.7455 7.13886C58.7178 7.38606 59.5789 7.76921 60.3287 8.28832C61.0868 8.80743 61.6842 9.47486 62.1209 10.2906C62.5576 11.0981 62.776 12.0663 62.776 13.1952V25.9999H57.7826V23.3673H57.6343C57.3294 23.9605 56.9215 24.4838 56.4107 24.937C55.8998 25.3819 55.2859 25.7321 54.5691 25.9876C53.8522 26.2347 53.0241 26.3583 52.0847 26.3583ZM53.5926 22.7246C54.3672 22.7246 55.0511 22.5721 55.6444 22.2673C56.2376 21.9541 56.7032 21.5339 57.041 21.0066C57.3789 20.4792 57.5478 19.8818 57.5478 19.2144V17.1997C57.383 17.3069 57.1564 17.4057 56.868 17.4964C56.5878 17.5788 56.2706 17.6571 55.9163 17.7312C55.562 17.7971 55.2077 17.8589 54.8533 17.9166C54.499 17.966 54.1777 18.0114 53.8893 18.0526C53.2713 18.1432 52.7316 18.2874 52.2701 18.4852C51.8087 18.6829 51.4503 18.9507 51.1948 19.2885C50.9394 19.6181 50.8117 20.0301 50.8117 20.5245C50.8117 21.2414 51.0712 21.7893 51.5904 22.1684C52.1177 22.5392 52.7851 22.7246 53.5926 22.7246Z" fill="#FEFFFE"/>
<path d="M34.5197 26.3707C32.5669 26.3707 30.8859 25.9752 29.4769 25.1842C28.0762 24.3849 26.9967 23.256 26.2387 21.7976C25.4806 20.3309 25.1016 18.5964 25.1016 16.5941C25.1016 14.6413 25.4806 12.9274 26.2387 11.4524C26.9967 9.97749 28.0638 8.82803 29.4399 8.00405C30.8241 7.18006 32.4474 6.76807 34.3096 6.76807C35.5621 6.76807 36.728 6.96994 37.8074 7.3737C38.8951 7.76921 39.8427 8.3666 40.6502 9.16587C41.4659 9.96513 42.1004 10.9704 42.5536 12.1817C43.0068 13.3847 43.2334 14.7937 43.2334 16.4087V17.8548H27.2027V14.5918H38.2771C38.2771 13.8338 38.1123 13.1622 37.7827 12.5772C37.4531 11.9921 36.9958 11.5348 36.4108 11.2052C35.834 10.8674 35.1624 10.6985 34.3961 10.6985C33.5969 10.6985 32.8882 10.8839 32.2702 11.2547C31.6605 11.6172 31.1826 12.1075 30.8365 12.7255C30.4904 13.3352 30.3133 14.015 30.305 14.7649V17.8672C30.305 18.8065 30.4781 19.6181 30.8241 20.302C31.1785 20.986 31.677 21.5133 32.3197 21.8841C32.9624 22.2549 33.7246 22.4403 34.6062 22.4403C35.1913 22.4403 35.7269 22.3579 36.213 22.1931C36.6992 22.0283 37.1153 21.7811 37.4614 21.4515C37.8074 21.1219 38.0711 20.7182 38.2524 20.2402L43.1221 20.5616C42.875 21.7317 42.3682 22.7534 41.6019 23.6268C40.8438 24.492 39.8633 25.1677 38.6603 25.6538C37.4655 26.1318 36.0853 26.3707 34.5197 26.3707Z" fill="#FEFFFE"/>
<path d="M0 25.9999V0.687012H5.35179V11.131H16.2161V0.687012H21.5555V25.9999H16.2161V15.5435H5.35179V25.9999H0Z" fill="#FEFFFE"/>
</svg>
