<svg width="247" height="12" viewBox="0 0 247 12" fill="none" xmlns="http://www.w3.org/2000/svg">
<path d="M245.555 9.06445C245.179 9.06445 244.857 8.75293 244.867 8.36621C244.857 7.99023 245.179 7.67871 245.555 7.67871C245.931 7.67871 246.242 7.99023 246.242 8.36621C246.242 8.75293 245.931 9.06445 245.555 9.06445Z" fill="#FEFFFE"/>
<path d="M240.606 9.11816C239.156 9.11816 238.125 7.94727 238.125 6.09961C238.125 4.25195 239.156 3.0918 240.617 3.0918C241.745 3.0918 242.11 3.7793 242.304 4.09082H242.368V1.22266H243.303V9H242.4V8.1084H242.304C242.1 8.43066 241.724 9.11816 240.606 9.11816ZM240.735 8.29102C241.799 8.29102 242.4 7.38867 242.4 6.07812C242.4 4.78906 241.82 3.91895 240.735 3.91895C239.618 3.91895 239.06 4.86426 239.06 6.07812C239.06 7.32422 239.629 8.29102 240.735 8.29102Z" fill="#FEFFFE"/>
<path d="M234.768 9.11816C233.081 9.11816 232.039 7.92578 232.039 6.13184C232.039 4.33789 233.092 3.0918 234.682 3.0918C235.906 3.0918 237.195 3.84375 237.195 6.00293V6.38965H232.963C233.006 7.625 233.726 8.30176 234.768 8.30176C235.466 8.30176 235.906 8.00098 236.121 7.63574H237.109C236.83 8.5166 235.971 9.11816 234.768 9.11816ZM232.974 5.60547H236.261C236.261 4.62793 235.638 3.9082 234.682 3.9082C233.672 3.9082 233.027 4.70312 232.974 5.60547Z" fill="#FEFFFE"/>
<path d="M231.514 3.16699L229.354 9H228.398L226.25 3.16699H227.26L228.85 7.79688H228.914L230.504 3.16699H231.514Z" fill="#FEFFFE"/>
<path d="M222.688 9V3.16699H223.579V4.05859H223.644C223.858 3.46777 224.46 3.07031 225.147 3.07031C225.287 3.07031 225.523 3.08105 225.631 3.0918V4.02637C225.566 4.00488 225.309 3.96191 225.072 3.96191C224.234 3.96191 223.611 4.54199 223.611 5.32617V9H222.688Z" fill="#FEFFFE"/>
<path d="M219.057 9.11816C217.37 9.11816 216.328 7.92578 216.328 6.13184C216.328 4.33789 217.381 3.0918 218.971 3.0918C220.195 3.0918 221.484 3.84375 221.484 6.00293V6.38965H217.252C217.295 7.625 218.015 8.30176 219.057 8.30176C219.755 8.30176 220.195 8.00098 220.41 7.63574H221.398C221.119 8.5166 220.26 9.11816 219.057 9.11816ZM217.263 5.60547H220.55C220.55 4.62793 219.927 3.9082 218.971 3.9082C217.961 3.9082 217.316 4.70312 217.263 5.60547Z" fill="#FEFFFE"/>
<path d="M214.391 4.68164C214.262 4.19824 213.896 3.87598 213.209 3.87598C212.489 3.87598 211.974 4.2627 211.974 4.75684C211.974 5.14355 212.285 5.41211 212.973 5.57324L213.843 5.78809C214.885 6.03516 215.4 6.55078 215.4 7.36719C215.4 8.37695 214.573 9.11816 213.112 9.11816C211.802 9.11816 211.018 8.53809 210.867 7.47461H211.834C211.941 8.04395 212.36 8.3125 213.091 8.3125C213.918 8.3125 214.444 7.96875 214.444 7.4209C214.444 7.0127 214.154 6.7334 213.488 6.58301L212.607 6.37891C211.587 6.14258 211.05 5.58398 211.05 4.81055C211.05 3.81152 211.92 3.0918 213.209 3.0918C214.412 3.0918 215.175 3.73633 215.293 4.68164H214.391Z" fill="#FEFFFE"/>
<path d="M207.518 9.11816C205.831 9.11816 204.789 7.92578 204.789 6.13184C204.789 4.33789 205.842 3.0918 207.432 3.0918C208.656 3.0918 209.945 3.84375 209.945 6.00293V6.38965H205.713C205.756 7.625 206.476 8.30176 207.518 8.30176C208.216 8.30176 208.656 8.00098 208.871 7.63574H209.859C209.58 8.5166 208.721 9.11816 207.518 9.11816ZM205.724 5.60547H209.011C209.011 4.62793 208.388 3.9082 207.432 3.9082C206.422 3.9082 205.777 4.70312 205.724 5.60547Z" fill="#FEFFFE"/>
<path d="M201.414 9V3.16699H202.306V4.05859H202.37C202.585 3.46777 203.187 3.07031 203.874 3.07031C204.014 3.07031 204.25 3.08105 204.357 3.0918V4.02637C204.293 4.00488 204.035 3.96191 203.799 3.96191C202.961 3.96191 202.338 4.54199 202.338 5.32617V9H201.414Z" fill="#FEFFFE"/>
<path d="M196.445 4.68164C196.316 4.19824 195.951 3.87598 195.264 3.87598C194.544 3.87598 194.028 4.2627 194.028 4.75684C194.028 5.14355 194.34 5.41211 195.027 5.57324L195.897 5.78809C196.939 6.03516 197.455 6.55078 197.455 7.36719C197.455 8.37695 196.628 9.11816 195.167 9.11816C193.856 9.11816 193.072 8.53809 192.922 7.47461H193.889C193.996 8.04395 194.415 8.3125 195.146 8.3125C195.973 8.3125 196.499 7.96875 196.499 7.4209C196.499 7.0127 196.209 6.7334 195.543 6.58301L194.662 6.37891C193.642 6.14258 193.104 5.58398 193.104 4.81055C193.104 3.81152 193.975 3.0918 195.264 3.0918C196.467 3.0918 197.229 3.73633 197.348 4.68164H196.445Z" fill="#FEFFFE"/>
<path d="M192.11 3.16699V3.94043H190.886V7.32422C190.886 8.07617 191.251 8.19434 191.648 8.19434C191.82 8.19434 192.057 8.18359 192.196 8.17285V9.03223C192.057 9.05371 191.82 9.0752 191.552 9.0752C190.778 9.0752 189.951 8.5918 189.951 7.56055V3.94043H189.07V3.16699H189.951V1.77051H190.886V3.16699H192.11Z" fill="#FEFFFE"/>
<path d="M184.307 5.49805V9H183.383V1.22266H184.307V4.08008H184.382C184.65 3.47852 185.177 3.0918 186.101 3.0918C187.293 3.0918 188.088 3.80078 188.088 5.29395V9H187.164V5.3584C187.164 4.44531 186.659 3.91895 185.821 3.91895C184.951 3.91895 184.307 4.48828 184.307 5.49805Z" fill="#FEFFFE"/>
<path d="M179.377 11.3096C177.97 11.3096 177.014 10.6973 176.906 9.6123H177.873C178.002 10.2031 178.55 10.5039 179.377 10.5039C180.376 10.5039 180.988 10.0742 180.988 9.10742V7.92578H180.913C180.72 8.24805 180.344 8.91406 179.216 8.91406C177.798 8.91406 176.734 7.83984 176.734 6.00293C176.734 4.20898 177.766 3.0918 179.227 3.0918C180.354 3.0918 180.72 3.7793 180.935 4.09082H181.01V3.16699H181.912V9.16113C181.912 10.665 180.795 11.3096 179.377 11.3096ZM179.345 8.08691C180.408 8.08691 181.01 7.32422 181.01 6.03516C181.01 4.78906 180.43 3.91895 179.345 3.91895C178.228 3.91895 177.669 4.86426 177.669 6.03516C177.669 7.24902 178.238 8.08691 179.345 8.08691Z" fill="#FEFFFE"/>
<path d="M174.612 9V3.16699H175.536V9H174.612ZM175.074 2.2002C174.72 2.2002 174.43 1.93164 174.43 1.58789C174.43 1.24414 174.72 0.975586 175.074 0.975586C175.429 0.975586 175.729 1.24414 175.729 1.58789C175.729 1.93164 175.429 2.2002 175.074 2.2002Z" fill="#FEFFFE"/>
<path d="M170.766 9V3.16699H171.657V4.05859H171.722C171.937 3.46777 172.538 3.07031 173.226 3.07031C173.365 3.07031 173.602 3.08105 173.709 3.0918V4.02637C173.645 4.00488 173.387 3.96191 173.15 3.96191C172.312 3.96191 171.689 4.54199 171.689 5.32617V9H170.766Z" fill="#FEFFFE"/>
<path d="M166.533 1.22266V9H165.609V1.22266H166.533Z" fill="#FEFFFE"/>
<path d="M164.143 1.22266V9H163.219V1.22266H164.143Z" fill="#FEFFFE"/>
<path d="M157.047 7.3457C157.047 6.00293 158.229 5.70215 159.238 5.62695C159.609 5.6001 160.554 5.55176 160.817 5.54102V5.06836C160.817 4.32715 160.377 3.89746 159.496 3.89746C158.755 3.89746 158.314 4.24121 158.186 4.68164H157.219C157.337 3.74707 158.25 3.0918 159.539 3.0918C160.302 3.0918 161.73 3.31738 161.73 5.1543V9H160.817V8.20508H160.774C160.581 8.60254 160.044 9.13965 159.034 9.13965C157.928 9.13965 157.047 8.48438 157.047 7.3457ZM157.971 7.38867C157.971 8.00098 158.486 8.3125 159.195 8.3125C160.237 8.3125 160.817 7.61426 160.817 6.88379V6.29297L159.346 6.40039C158.508 6.4541 157.971 6.75488 157.971 7.38867Z" fill="#FEFFFE"/>
<path d="M149.369 5.49805V9H148.445V3.16699H149.337V4.08008H149.412C149.691 3.48926 150.229 3.0918 151.12 3.0918C152.302 3.0918 153.086 3.81152 153.086 5.29395V9H152.162V5.3584C152.162 4.45605 151.668 3.91895 150.841 3.91895C149.992 3.91895 149.369 4.48828 149.369 5.49805Z" fill="#FEFFFE"/>
<path d="M146.05 9V3.16699H146.974V9H146.05ZM146.512 2.2002C146.157 2.2002 145.867 1.93164 145.867 1.58789C145.867 1.24414 146.157 0.975586 146.512 0.975586C146.866 0.975586 147.167 1.24414 147.167 1.58789C147.167 1.93164 146.866 2.2002 146.512 2.2002Z" fill="#FEFFFE"/>
<path d="M140.349 9V3.16699H141.938V9H140.349ZM141.144 2.4043C140.66 2.4043 140.273 2.03906 140.273 1.59863C140.273 1.14746 140.66 0.782227 141.144 0.782227C141.616 0.782227 142.003 1.14746 142.003 1.59863C142.003 2.03906 141.616 2.4043 141.144 2.4043Z" fill="#FEFFFE"/>
<path d="M135.363 5.62695V9H133.773V3.16699H135.288V4.1875H135.353C135.621 3.51074 136.244 3.0918 137.104 3.0918C138.317 3.0918 139.123 3.91895 139.112 5.2832V9H137.533V5.5625C137.533 4.84277 137.136 4.41309 136.48 4.41309C135.814 4.41309 135.363 4.85352 135.363 5.62695Z" fill="#FEFFFE"/>
<path d="M127.044 9L127.033 7.8291L129.826 5.26172C130.557 4.56348 130.943 4.13379 130.943 3.52148C130.943 2.83398 130.417 2.4043 129.708 2.4043C128.978 2.4043 128.505 2.86621 128.505 3.60742H126.969C126.958 2.08203 128.086 1.11523 129.73 1.11523C131.395 1.11523 132.501 2.06055 132.501 3.41406C132.501 4.29492 132.071 5.02539 130.471 6.47559L129.289 7.625V7.66797H132.608V9H127.044Z" fill="#FEFFFE"/>
<path d="M122.074 5.62695V9H120.484V3.16699H121.999V4.1875H122.063C122.332 3.51074 122.955 3.0918 123.814 3.0918C125.028 3.0918 125.834 3.91895 125.823 5.2832V9H124.244V5.5625C124.244 4.84277 123.847 4.41309 123.191 4.41309C122.525 4.41309 122.074 4.85352 122.074 5.62695Z" fill="#FEFFFE"/>
<path d="M114.07 7.36719C114.07 6.06738 115.123 5.6377 116.24 5.57324C116.659 5.54639 117.443 5.50879 117.69 5.49805V5.02539C117.68 4.54199 117.347 4.25195 116.756 4.25195C116.219 4.25195 115.875 4.49902 115.789 4.89648H114.274C114.371 3.88672 115.252 3.0918 116.799 3.0918C118.066 3.0918 119.27 3.66113 119.27 5.06836V9H117.766V8.19434H117.723C117.433 8.73145 116.885 9.10742 116.015 9.10742C114.897 9.10742 114.07 8.52734 114.07 7.36719ZM115.596 7.32422C115.596 7.77539 115.961 8.01172 116.466 8.01172C117.186 8.01172 117.701 7.52832 117.69 6.91602V6.48633C117.449 6.49707 116.772 6.53467 116.498 6.56152C115.95 6.61523 115.596 6.87305 115.596 7.32422Z" fill="#FEFFFE"/>
<path d="M104.68 9V3.16699H106.194V4.1875H106.259C106.506 3.51074 107.097 3.0918 107.881 3.0918C108.687 3.0918 109.277 3.51074 109.471 4.1875H109.524C109.771 3.52148 110.427 3.0918 111.286 3.0918C112.371 3.0918 113.123 3.81152 113.123 5.0791V9H111.533V5.39062C111.533 4.72461 111.146 4.40234 110.62 4.40234C110.019 4.40234 109.675 4.82129 109.675 5.43359V9H108.128V5.34766C108.128 4.76758 107.763 4.40234 107.226 4.40234C106.688 4.40234 106.27 4.83203 106.27 5.49805V9H104.68Z" fill="#FEFFFE"/>
<path d="M99.3457 6.30371H100.731L101.322 7.06641C101.693 6.63135 101.902 5.97607 101.902 5.11133C101.902 3.44629 101.118 2.54395 99.915 2.54395C98.7119 2.54395 97.917 3.44629 97.917 5.11133C97.917 6.77637 98.7119 7.67871 99.915 7.67871C100.071 7.67871 100.221 7.6626 100.366 7.63574L99.3457 6.30371ZM103.546 5.11133C103.546 6.49707 103.073 7.56592 102.311 8.2373L103.417 9.64453H101.902L101.279 8.86035C100.86 9.02686 100.398 9.10742 99.915 9.10742C97.8418 9.10742 96.2734 7.63574 96.2734 5.11133C96.2734 2.57617 97.8418 1.11523 99.915 1.11523C101.967 1.11523 103.546 2.57617 103.546 5.11133Z" fill="#FEFFFE"/>
<path d="M89.9766 7.36719C89.9766 6.06738 91.0293 5.6377 92.1465 5.57324C92.5654 5.54639 93.3496 5.50879 93.5967 5.49805V5.02539C93.5859 4.54199 93.2529 4.25195 92.6621 4.25195C92.125 4.25195 91.7812 4.49902 91.6953 4.89648H90.1807C90.2773 3.88672 91.1582 3.0918 92.7051 3.0918C93.9727 3.0918 95.1758 3.66113 95.1758 5.06836V9H93.6719V8.19434H93.6289C93.3389 8.73145 92.791 9.10742 91.9209 9.10742C90.8037 9.10742 89.9766 8.52734 89.9766 7.36719ZM91.502 7.32422C91.502 7.77539 91.8672 8.01172 92.3721 8.01172C93.0918 8.01172 93.6074 7.52832 93.5967 6.91602V6.48633C93.355 6.49707 92.6782 6.53467 92.4043 6.56152C91.8564 6.61523 91.502 6.87305 91.502 7.32422Z" fill="#FEFFFE"/>
<path d="M85.3174 9H82.5781V1.22266H85.3496C87.6914 1.22266 89.1201 2.68359 89.1201 5.10059C89.1201 7.53906 87.6914 9 85.3174 9ZM84.1895 7.61426H85.2529C86.7354 7.61426 87.5088 6.84082 87.5088 5.10059C87.5088 3.37109 86.7354 2.6084 85.2637 2.6084H84.1895V7.61426Z" fill="#FEFFFE"/>
<path d="M77.7815 9.06445C77.4055 9.06445 77.0833 8.75293 77.094 8.36621C77.0833 7.99023 77.4055 7.67871 77.7815 7.67871C78.1575 7.67871 78.469 7.99023 78.469 8.36621C78.469 8.75293 78.1575 9.06445 77.7815 9.06445Z" fill="#FEFFFE"/>
<path d="M70.4141 7.41016V6.61523L73.916 1.22266H75.1084V6.56152H76.1934V7.41016H75.1084V9H74.1846V7.41016H70.4141ZM71.4561 6.56152H74.1846V2.44727H74.0879L71.4561 6.49707V6.56152Z" fill="#FEFFFE"/>
<path d="M64.3232 9L64.3125 8.29102L66.9658 5.49805C67.8896 4.52051 68.3301 3.99414 68.3301 3.27441C68.3301 2.47949 67.6533 1.95312 66.7832 1.95312C65.8594 1.95312 65.2686 2.54395 65.2686 3.41406H64.3555C64.3447 2.03906 65.4082 1.11523 66.8154 1.11523C68.2227 1.11523 69.2324 2.06055 69.2324 3.27441C69.2324 4.14453 68.8242 4.82129 67.4492 6.23926L65.666 8.07617V8.14062H69.3721V9H64.3232Z" fill="#FEFFFE"/>
<path d="M60.3193 9.10742C58.5898 9.10742 57.6016 7.65723 57.6016 5.11133C57.6016 2.58691 58.6113 1.11523 60.3193 1.11523C62.0273 1.11523 63.0371 2.58691 63.0371 5.11133C63.0371 7.65723 62.0381 9.10742 60.3193 9.10742ZM60.3193 8.24805C61.4365 8.24805 62.0918 7.12012 62.0918 5.11133C62.0918 3.10254 61.4365 1.95312 60.3193 1.95312C59.2021 1.95312 58.5361 3.10254 58.5361 5.11133C58.5361 7.12012 59.1914 8.24805 60.3193 8.24805Z" fill="#FEFFFE"/>
<path d="M51.3154 9L51.3047 8.29102L53.958 5.49805C54.8818 4.52051 55.3223 3.99414 55.3223 3.27441C55.3223 2.47949 54.6455 1.95312 53.7754 1.95312C52.8516 1.95312 52.2607 2.54395 52.2607 3.41406H51.3477C51.3369 2.03906 52.4004 1.11523 53.8076 1.11523C55.2148 1.11523 56.2246 2.06055 56.2246 3.27441C56.2246 4.14453 55.8164 4.82129 54.4414 6.23926L52.6582 8.07617V8.14062H56.3643V9H51.3154Z" fill="#FEFFFE"/>
<path d="M47.376 3.16699V3.94043H46.1514V7.32422C46.1514 8.07617 46.5166 8.19434 46.9141 8.19434C47.0859 8.19434 47.3223 8.18359 47.4619 8.17285V9.03223C47.3223 9.05371 47.0859 9.0752 46.8174 9.0752C46.0439 9.0752 45.2168 8.5918 45.2168 7.56055V3.94043H44.3359V3.16699H45.2168V1.77051H46.1514V3.16699H47.376Z" fill="#FEFFFE"/>
<path d="M39.5645 5.49805V9H38.6406V1.22266H39.5645V4.08008H39.6396C39.9082 3.47852 40.4346 3.0918 41.3584 3.0918C42.5508 3.0918 43.3457 3.80078 43.3457 5.29395V9H42.4219V5.3584C42.4219 4.44531 41.917 3.91895 41.0791 3.91895C40.209 3.91895 39.5645 4.48828 39.5645 5.49805Z" fill="#FEFFFE"/>
<path d="M34.6348 11.3096C33.2275 11.3096 32.2715 10.6973 32.1641 9.6123H33.1309C33.2598 10.2031 33.8076 10.5039 34.6348 10.5039C35.6338 10.5039 36.2461 10.0742 36.2461 9.10742V7.92578H36.1709C35.9775 8.24805 35.6016 8.91406 34.4736 8.91406C33.0557 8.91406 31.9922 7.83984 31.9922 6.00293C31.9922 4.20898 33.0234 3.0918 34.4844 3.0918C35.6123 3.0918 35.9775 3.7793 36.1924 4.09082H36.2676V3.16699H37.1699V9.16113C37.1699 10.665 36.0527 11.3096 34.6348 11.3096ZM34.6025 8.08691C35.666 8.08691 36.2676 7.32422 36.2676 6.03516C36.2676 4.78906 35.6875 3.91895 34.6025 3.91895C33.4854 3.91895 32.9268 4.86426 32.9268 6.03516C32.9268 7.24902 33.4961 8.08691 34.6025 8.08691Z" fill="#FEFFFE"/>
<path d="M29.8701 9V3.16699H30.7939V9H29.8701ZM30.332 2.2002C29.9775 2.2002 29.6875 1.93164 29.6875 1.58789C29.6875 1.24414 29.9775 0.975586 30.332 0.975586C30.6865 0.975586 30.9873 1.24414 30.9873 1.58789C30.9873 1.93164 30.6865 2.2002 30.332 2.2002Z" fill="#FEFFFE"/>
<path d="M26.0312 9V3.16699H26.9229V4.05859H26.9873C27.2021 3.46777 27.8037 3.07031 28.4912 3.07031C28.6309 3.07031 28.8672 3.08105 28.9746 3.0918V4.02637C28.9102 4.00488 28.6523 3.96191 28.416 3.96191C27.5781 3.96191 26.9551 4.54199 26.9551 5.32617V9H26.0312Z" fill="#FEFFFE"/>
<path d="M20.7949 11.1914C20.5908 11.1914 20.3975 11.1807 20.2793 11.1699V10.3428C20.376 10.3535 20.5908 10.3643 20.7305 10.3643C21.1064 10.3643 21.418 10.332 21.7295 9.4834L21.9014 9.04297L19.7422 3.16699H20.752L22.3418 7.79688H22.4062L23.9961 3.16699H25.0059L22.5352 9.83789C22.1914 10.751 21.6221 11.1914 20.7949 11.1914Z" fill="#FEFFFE"/>
<path d="M14.0469 11.1914V3.16699H14.9385V4.09082H15.0459C15.2393 3.7793 15.6045 3.0918 16.7324 3.0918C18.1934 3.0918 19.2139 4.25195 19.2139 6.09961C19.2139 7.94727 18.1934 9.11816 16.7432 9.11816C15.626 9.11816 15.2393 8.43066 15.0459 8.1084H14.9707V11.1914H14.0469ZM14.9492 6.07812C14.9492 7.38867 15.54 8.29102 16.6143 8.29102C17.7207 8.29102 18.29 7.32422 18.29 6.07812C18.29 4.86426 17.7314 3.91895 16.6143 3.91895C15.5186 3.91895 14.9492 4.78906 14.9492 6.07812Z" fill="#FEFFFE"/>
<path d="M10.1953 9.11816C8.60547 9.11816 7.53125 7.92578 7.53125 6.11035C7.53125 4.29492 8.60547 3.0918 10.1953 3.0918C11.7744 3.0918 12.8379 4.29492 12.8379 6.11035C12.8379 7.92578 11.7744 9.11816 10.1953 9.11816ZM10.1953 8.30176C11.3662 8.30176 11.9141 7.27051 11.9141 6.11035C11.9141 4.9502 11.3662 3.9082 10.1953 3.9082C9.00293 3.9082 8.45508 4.9502 8.45508 6.11035C8.45508 7.27051 9.00293 8.30176 10.1953 8.30176Z" fill="#FEFFFE"/>
<path d="M5.60742 3.67188C5.38184 2.59766 4.45801 2.01758 3.4375 2.01758C2.03027 2.01758 0.93457 3.10254 0.93457 5.11133C0.93457 7.12012 2.03027 8.20508 3.4375 8.20508C4.45801 8.20508 5.37109 7.625 5.60742 6.56152H6.57422C6.29492 8.15137 5.0166 9.10742 3.4375 9.10742C1.43945 9.10742 0 7.57129 0 5.11133C0 2.65137 1.43945 1.11523 3.4375 1.11523C5.00586 1.11523 6.28418 2.06055 6.57422 3.67188H5.60742Z" fill="#FEFFFE"/>
</svg>
