<svg width="120" height="41" viewBox="0 0 120 41" fill="none" xmlns="http://www.w3.org/2000/svg">
<path d="M38.4815 20.054H32.2753V40.3892H27.7417V0.643054H32.2753V16.3126H38.4815V20.054ZM15.4173 12.1752C15.4173 18.2933 19.3347 25.4239 25.3648 28.2409L22.8559 31.8062C18.4104 29.6934 15.0211 25.4239 13.2165 20.274C11.4559 25.82 7.97864 30.5737 3.35699 32.8185L0.760067 29.2092C6.87825 26.2602 10.8837 18.7335 10.8837 12.1752V8.3458H2.21258V4.60446H23.8243V8.3458H15.4173V12.1752ZM77.9601 19.8339V23.5312H42.0433V19.8339H57.7129V15.8725H46.4889V2.40368H73.5585V6.01297H50.9785V12.2192H73.8226V15.8725H62.2465V19.8339H77.9601ZM59.8697 25.9521C68.4087 25.9521 73.5585 28.593 73.5585 33.1706C73.5585 37.7923 68.6288 40.4332 59.8697 40.4332C51.3746 40.4332 46.1808 37.7923 46.1808 33.1706C46.1808 28.593 51.3746 25.9521 59.8697 25.9521ZM59.8697 36.912C65.7238 36.912 68.9809 35.6355 68.9809 33.1706C68.9809 30.7058 65.7238 29.4293 59.8697 29.4293C54.0156 29.4293 50.8024 30.7058 50.8024 33.1706C50.8024 35.6355 54.0156 36.912 59.8697 36.912ZM119.463 20.3181H113.257V40.3892H108.724V0.599039H113.257V16.5767H119.463V20.3181ZM96.2232 13.2756C96.2232 19.3497 99.7444 25.864 105.599 28.681L103.09 32.1583C98.8201 30.0895 95.651 26.0401 94.0224 21.2424C92.2618 26.3922 89.0046 30.7498 84.427 32.8625L81.9181 29.3853C87.9922 26.4803 91.6896 19.7459 91.6896 13.2756V10.9867H83.1505V7.33344H91.6896V1.43534H96.2232V7.33344H104.63V10.9867H96.2232V13.2756Z" fill="white"/>
</svg>
