<svg width="335" height="334" viewBox="0 0 335 334" fill="none" xmlns="http://www.w3.org/2000/svg">
<circle cx="167.631" cy="166.996" r="117.95" transform="rotate(-45 167.631 166.996)" fill="white"/>
<path d="M131.696 148.139L171.224 187.012C171.357 187.19 171.578 187.301 171.8 187.301H216.841V187.279C219.036 187.279 220.256 184.728 218.881 183.021L182.533 137.781M131.696 148.139C131.319 147.651 126.535 161.828 131.696 148.139ZM131.696 148.139L182.533 137.781M182.533 137.781C188.929 114.652 182.378 137.626 182.533 137.781Z" stroke="#F7451E" stroke-width="6.77922" stroke-miterlimit="10" stroke-linecap="round"/>
<path d="M219.438 212.294C234.037 212.294 245.872 200.459 245.872 185.859C245.872 171.26 234.037 159.425 219.438 159.425C204.839 159.425 193.004 171.26 193.004 185.859C193.004 200.459 204.839 212.294 219.438 212.294Z" fill="#DF2800"/>
<path d="M219.56 200.755C227.742 200.755 234.375 194.123 234.375 185.941C234.375 177.76 227.742 171.127 219.56 171.127C211.379 171.127 204.746 177.76 204.746 185.941C204.746 194.123 211.379 200.755 219.56 200.755Z" fill="white"/>
<path d="M119.837 185.859L137.822 123.411C138.576 120.772 136.602 118.133 133.853 118.133H117.109" stroke="#F7451E" stroke-width="6.77922" stroke-miterlimit="10" stroke-linecap="round"/>
<path d="M171.41 187.301L183.097 130.951" stroke="#F7451E" stroke-width="6.77922" stroke-miterlimit="10" stroke-linecap="round"/>
<path d="M193.822 118.111H172.422C170.377 118.111 168.719 119.769 168.719 121.814V127.247C168.719 129.293 170.377 130.951 172.422 130.951H193.822C195.868 130.951 197.526 129.293 197.526 127.247V121.814C197.526 119.769 195.868 118.111 193.822 118.111Z" fill="#DF2800"/>
<path d="M118.936 136.584C113.814 136.584 109.645 132.415 109.645 127.292C109.645 122.169 113.814 118 118.936 118" stroke="#F7451E" stroke-width="6.77922" stroke-miterlimit="10" stroke-linecap="round"/>
<path d="M119.817 212.294C134.416 212.294 146.251 200.459 146.251 185.859C146.251 171.26 134.416 159.425 119.817 159.425C105.218 159.425 93.3828 171.26 93.3828 185.859C93.3828 200.459 105.218 212.294 119.817 212.294Z" fill="#DF2800"/>
<path d="M119.948 199.734C127.847 199.734 134.251 193.33 134.251 185.43C134.251 177.531 127.847 171.127 119.948 171.127C112.048 171.127 105.645 177.531 105.645 185.43C105.645 193.33 112.048 199.734 119.948 199.734Z" fill="white"/>
</svg>
