<svg width="362" height="362" viewBox="0 0 362 362" fill="none" xmlns="http://www.w3.org/2000/svg">
<circle cx="180.9" cy="180.9" r="130.539" transform="rotate(-30.6429 180.9 180.9)" stroke="#F7451E" stroke-opacity="0.2" stroke-width="3"/>
<path d="M173.928 78.7713C230.259 74.7784 279.161 117.207 283.154 173.538C287.147 229.87 244.718 278.772 188.387 282.765C132.056 286.758 83.1533 244.329 79.1604 187.998C75.1676 131.667 117.596 82.7641 173.928 78.7713Z" stroke="#F7451E" stroke-opacity="0.5" stroke-width="3"/>
<path d="M175.169 105.686C216.855 102.731 253.044 134.129 255.999 175.815C258.954 217.501 227.556 253.69 185.87 256.645C144.183 259.6 107.995 228.202 105.04 186.515C102.085 144.829 133.483 108.641 175.169 105.686Z" stroke="#F7451E" stroke-opacity="0.8" stroke-width="3"/>
<path d="M232.058 172.985H227.132C225.207 172.985 223.449 171.943 222.52 170.272L213.961 150.369C212.667 148.037 210.212 146.597 207.558 146.597H159.753C157.232 146.597 154.876 147.888 153.549 150.022L140.711 170.504C139.749 172.042 138.057 172.969 136.249 172.969H129.315C125.268 172.969 122 176.244 122 180.265V193.533C122 197.57 125.284 200.829 129.315 200.829H232.058C236.105 200.829 239.373 197.553 239.373 193.533V180.265C239.373 176.228 236.089 172.969 232.058 172.969V172.985Z" fill="#F7451E"/>
<path d="M232.058 172.985H227.132C225.207 172.985 223.449 171.943 222.52 170.272L213.961 150.369C212.667 148.037 210.212 146.597 207.558 146.597H159.753C157.232 146.597 154.876 147.888 153.549 150.022L140.711 170.504C139.749 172.042 138.057 172.969 136.249 172.969H129.315C125.268 172.969 122 176.244 122 180.265V193.533C122 197.57 125.284 200.829 129.315 200.829H232.058C236.105 200.829 239.373 197.553 239.373 193.533V180.265C239.373 176.228 236.089 172.969 232.058 172.969V172.985Z" fill="url(#paint0_linear_2929_3091)"/>
<path d="M207.24 167.884L202.765 156.382C202.166 155.302 201.019 154.621 199.79 154.621L191.833 154.621C189.955 154.621 188.426 156.15 188.426 158.028V169.529C188.426 171.407 189.955 172.936 191.833 172.936H204.265C206.858 172.936 208.503 170.161 207.24 167.884Z" fill="#F9FFEF"/>
<path d="M161.713 156.233L154.517 167.734C153.104 169.994 154.733 172.936 157.409 172.936H176.173C178.051 172.936 179.58 171.407 179.58 169.529V158.028C179.58 156.15 178.051 154.621 176.173 154.621H164.588C163.408 154.621 162.328 155.219 161.697 156.216L161.713 156.233Z" fill="#F9FFEF"/>
<path d="M129.178 178.749H124.887C124.361 178.749 123.934 179.637 123.934 180.734V185.286C123.934 186.382 124.361 187.271 124.887 187.271H129.178C129.705 187.271 130.132 186.382 130.132 185.286V180.734C130.132 179.637 129.705 178.749 129.178 178.749Z" fill="#DF2800"/>
<path d="M236.487 178.749H232.196C231.669 178.749 231.242 179.637 231.242 180.734V185.286C231.242 186.382 231.669 187.271 232.196 187.271H236.487C237.013 187.271 237.44 186.382 237.44 185.286V180.734C237.44 179.637 237.013 178.749 236.487 178.749Z" fill="#DF2800"/>
<path d="M122 193.469H239.373C239.373 196.25 237.119 198.505 234.337 198.505H127.036C124.255 198.505 122 196.25 122 193.469Z" fill="#DF2800"/>
<path d="M150.671 210.513C157.945 210.513 163.841 204.703 163.841 197.536C163.841 190.369 157.945 184.559 150.671 184.559C143.397 184.559 137.5 190.369 137.5 197.536C137.5 204.703 143.397 210.513 150.671 210.513Z" fill="#FA3713"/>
<path d="M209.928 210.513C217.202 210.513 223.099 204.703 223.099 197.536C223.099 190.369 217.202 184.559 209.928 184.559C202.654 184.559 196.758 190.369 196.758 197.536C196.758 204.703 202.654 210.513 209.928 210.513Z" fill="#FA3713"/>
<rect x="130.133" y="200.83" width="96.0678" height="13.1706" fill="#F9FFEF"/>
<path d="M209.998 208.825C216.286 208.825 221.383 203.728 221.383 197.44C221.383 191.152 216.286 186.055 209.998 186.055C203.71 186.055 198.613 191.152 198.613 197.44C198.613 203.728 203.71 208.825 209.998 208.825Z" fill="#DF2800"/>
<path d="M209.931 203.153C212.926 203.153 215.354 200.639 215.354 197.537C215.354 194.434 212.926 191.92 209.931 191.92C206.936 191.92 204.508 194.434 204.508 197.537C204.508 200.639 206.936 203.153 209.931 203.153Z" fill="#FFF1F1"/>
<path d="M150.725 208.825C157.012 208.825 162.11 203.728 162.11 197.44C162.11 191.152 157.012 186.055 150.725 186.055C144.437 186.055 139.34 191.152 139.34 197.44C139.34 203.728 144.437 208.825 150.725 208.825Z" fill="#DF2800"/>
<path d="M150.665 203.153C153.661 203.153 156.089 200.639 156.089 197.537C156.089 194.434 153.661 191.92 150.665 191.92C147.67 191.92 145.242 194.434 145.242 197.537C145.242 200.639 147.67 203.153 150.665 203.153Z" fill="#FFF1F1"/>
<defs>
<linearGradient id="paint0_linear_2929_3091" x1="180.88" y1="178.362" x2="180.687" y2="200.829" gradientUnits="userSpaceOnUse">
<stop stop-color="#F7451E"/>
<stop offset="1" stop-color="#FF1E00"/>
</linearGradient>
</defs>
</svg>
