<svg width="29" height="49" viewBox="0 0 29 49" fill="none" xmlns="http://www.w3.org/2000/svg">
<path d="M4.30607 8.93002H24.6993C26.9578 8.93002 28.7487 10.599 28.7487 12.6104V35.7951C28.7487 37.8065 26.9578 39.4755 24.6993 39.4755H4.30607C2.04753 39.4755 0.256684 37.8065 0.256684 35.7951V12.6104C0.256684 10.599 2.04753 8.93002 4.30607 8.93002Z" fill="url(#paint0_linear_3167_6224)" stroke="#58D53C" stroke-width="0.513369"/>
<path d="M5.39337 7.19983L5.39336 7.19987C5.37728 7.29519 5.41203 7.39791 5.51136 7.48769C5.61206 7.57871 5.77222 7.64649 5.96588 7.64649H14.5018H23.0377C23.2316 7.64649 23.3917 7.57883 23.4923 7.48798C23.5914 7.39848 23.6264 7.29581 23.6102 7.19983H5.39337ZM5.39337 7.19983L6.36063 1.46251C6.36063 1.46251 6.36063 1.4625 6.36064 1.46249C6.45049 0.92982 7.05658 0.459321 7.86531 0.459321H14.5018H21.1383C21.947 0.459321 22.5531 0.92982 22.643 1.46249C22.643 1.4625 22.643 1.46251 22.643 1.46251L23.6102 7.19977L5.39337 7.19983Z" fill="#58D53C" stroke="url(#paint1_linear_3167_6224)" stroke-width="0.513369"/>
<path d="M23.6144 41.2054L23.6145 41.2054C23.6305 41.1101 23.5958 41.0074 23.4964 40.9176C23.3958 40.8266 23.2356 40.7588 23.0419 40.7588L14.506 40.7588L5.9701 40.7588C5.77625 40.7588 5.6161 40.8264 5.5155 40.9173C5.4164 41.0068 5.38145 41.1095 5.39759 41.2054L23.6144 41.2054ZM23.6144 41.2054L22.6472 46.9428C22.6472 46.9428 22.6472 46.9428 22.6472 46.9428C22.5573 47.4755 21.9512 47.946 21.1425 47.946L14.506 47.946L7.86953 47.946C7.0608 47.946 6.45471 47.4755 6.36486 46.9428C6.36486 46.9428 6.36485 46.9428 6.36485 46.9428L5.3976 41.2055L23.6144 41.2054Z" fill="#58D53C" stroke="url(#paint2_linear_3167_6224)" stroke-width="0.513369"/>
<path d="M6.87995 12.2669H22.1257C23.8202 12.2669 25.1552 13.5221 25.1552 15.0248V33.1241C25.1552 34.6268 23.8202 35.8819 22.1257 35.8819H6.87995C5.1855 35.8819 3.85043 34.6268 3.85043 33.1241V15.0248C3.85043 13.5221 5.1855 12.2669 6.87995 12.2669Z" fill="#58D53C" stroke="white" stroke-width="0.513369"/>
<defs>
<linearGradient id="paint0_linear_3167_6224" x1="3.08021" y1="9.95676" x2="27.3369" y2="37.9354" gradientUnits="userSpaceOnUse">
<stop stop-color="#F4FFD7"/>
<stop offset="1" stop-color="#D7FFC5"/>
</linearGradient>
<linearGradient id="paint1_linear_3167_6224" x1="14.5018" y1="0.202637" x2="14.5018" y2="7.90317" gradientUnits="userSpaceOnUse">
<stop stop-color="#E8FFD9"/>
<stop offset="1" stop-color="#EAFFCF"/>
</linearGradient>
<linearGradient id="paint2_linear_3167_6224" x1="14.506" y1="48.2026" x2="14.506" y2="40.5021" gradientUnits="userSpaceOnUse">
<stop stop-color="#E8FFD9"/>
<stop offset="1" stop-color="#EAFFCF"/>
</linearGradient>
</defs>
</svg>
