<svg width="393" height="438" viewBox="0 0 393 438" fill="none" xmlns="http://www.w3.org/2000/svg">
<circle cx="196.609" cy="218.67" r="153.469" transform="rotate(-45 196.609 218.67)" fill="white" stroke="url(#paint0_linear_2232_12379)" stroke-width="2"/>
<path d="M263.639 294.521H256.995V317.032H250.45V271.416H256.995V289.117H263.639V294.521ZM237.757 285.597C237.757 292.042 240.98 299.43 248.12 302.851L244.649 307.809C239.691 305.578 236.518 301.413 234.584 296.257C232.601 301.86 229.13 306.272 223.973 308.603L220.453 303.595C227.841 300.174 231.262 292.488 231.262 285.597V284.01H221.99V278.804H231.262V272.457H237.807V278.804H246.831V284.01H237.757V285.597Z" fill="#F7451E"/>
<path d="M216.99 292.836V298.042H175.688V292.836H193.041V289.067H180.695V273.3H212.031V278.506H187.191V283.861H212.279V289.067H199.586V292.836H216.99ZM196.165 300.273C206.032 300.273 212.031 303.298 212.031 308.702C212.031 314.057 206.032 317.081 196.165 317.081C186.298 317.081 180.348 314.057 180.348 308.702C180.348 303.298 186.298 300.273 196.165 300.273ZM196.165 312.123C202.363 312.123 205.387 311.082 205.387 308.702C205.387 306.372 202.313 305.231 196.165 305.231C190.017 305.231 186.943 306.372 186.943 308.702C186.943 311.082 189.967 312.123 196.165 312.123Z" fill="#F7451E"/>
<path d="M172.416 294.174H165.772V317.032H159.227V271.366H165.772V288.77H172.416V294.174ZM146.782 283.663C146.782 290.604 150.401 298.736 157.888 302.157L154.269 307.314C149.112 304.983 145.641 300.422 143.608 295.017C141.576 301.017 137.906 305.925 132.7 308.454L129.031 303.248C136.518 299.827 140.237 291.199 140.237 283.663V281.134H130.767V275.73H155.855V281.134H146.782V283.663Z" fill="#F7451E"/>
<path fill-rule="evenodd" clip-rule="evenodd" d="M284.709 175.648H276.209C272.889 175.648 269.856 173.845 268.253 170.954L253.485 136.525C251.253 132.49 247.018 130 242.438 130H159.958C155.608 130 151.544 132.232 149.254 135.924L127.103 171.355C125.443 174.016 122.524 175.619 119.404 175.619H107.441C100.458 175.619 94.8203 181.286 94.8203 188.24V211.193C94.8203 218.176 100.487 223.814 107.441 223.814H124.755L124.755 223.843C124.755 234.67 133.532 243.447 144.359 243.447C155.186 243.447 163.963 234.67 163.963 223.843L163.963 223.814H230.65C230.65 223.823 230.65 223.833 230.65 223.843C230.65 234.67 239.427 243.447 250.254 243.447C261.081 243.447 269.858 234.67 269.858 223.843C269.858 223.833 269.858 223.823 269.858 223.814H284.709C291.692 223.814 297.33 218.147 297.33 211.193V188.24C297.33 181.257 291.664 175.619 284.709 175.619V175.648Z" fill="#F7451E"/>
<path d="M241.694 166.947L230.761 147.143C229.731 145.282 227.756 144.109 225.638 144.109H215.164C211.93 144.109 209.297 146.742 209.297 149.976V169.78C209.297 173.014 211.93 175.647 215.164 175.647H236.571C241.036 175.647 243.869 170.868 241.694 166.947Z" fill="white"/>
<path d="M163.304 146.885L150.912 166.689C148.479 170.582 151.284 175.647 155.892 175.647H188.203C191.437 175.647 194.07 173.014 194.07 169.78V149.976C194.07 146.742 191.437 144.109 188.203 144.109H168.255C166.223 144.109 164.363 145.139 163.275 146.856L163.304 146.885Z" fill="white"/>
<path d="M103.95 195.281H96.4802C95.5635 195.281 94.8203 196.024 94.8203 196.94V200.747C94.8203 201.664 95.5635 202.407 96.4802 202.407H103.95C104.867 202.407 105.61 201.664 105.61 200.747V196.94C105.61 196.024 104.867 195.281 103.95 195.281Z" fill="white"/>
<path d="M181.566 185.688H192.155C192.506 185.688 192.79 185.972 192.79 186.323V189.614C192.79 189.965 192.506 190.249 192.155 190.249H181.566C181.215 190.249 180.931 189.964 180.931 189.614V186.323C180.931 185.972 181.215 185.688 181.566 185.688Z" stroke="#F7451E" stroke-width="2.5656"/>
<path d="M295.669 195.281H288.199C287.282 195.281 286.539 196.024 286.539 196.94V200.747C286.539 201.664 287.282 202.407 288.199 202.407H295.669C296.585 202.407 297.328 201.664 297.328 200.747V196.94C297.328 196.024 296.585 195.281 295.669 195.281Z" fill="white"/>
<defs>
<linearGradient id="paint0_linear_2232_12379" x1="268.634" y1="9.39634" x2="179.305" y2="412.654" gradientUnits="userSpaceOnUse">
<stop stop-color="white"/>
<stop offset="1" stop-color="#FF927A"/>
</linearGradient>
</defs>
</svg>
