<svg width="119" height="158" viewBox="0 0 119 158" fill="none" xmlns="http://www.w3.org/2000/svg">
<rect x="117.863" y="42.684" width="77.7258" height="117.226" rx="5.73387" transform="rotate(90 117.863 42.684)" fill="#58D53C" stroke="#FEFFFE" stroke-width="1.27419"/>
<path d="M93.4949 0H26.2843C16.6953 0 8.92188 7.14478 8.92188 15.9583V142.042C8.92188 150.855 16.6953 158 26.2843 158H93.4949C103.084 158 110.857 150.855 110.857 142.042V15.9583C110.857 7.14478 103.084 0 93.4949 0Z" fill="#58D53C"/>
<path d="M93.5286 22.936H26.2496C24.4204 22.936 22.9375 24.3052 22.9375 25.9941V137.104C22.9375 138.793 24.4204 140.162 26.2496 140.162H93.5286C95.3578 140.162 96.8407 138.793 96.8407 137.104V25.9941C96.8407 24.3052 95.3578 22.936 93.5286 22.936Z" fill="white"/>
<path d="M57.2031 12.9038H73.546" stroke="white" stroke-width="5.42766" stroke-miterlimit="10" stroke-linecap="round"/>
<path d="M48.399 15.4754C49.7413 15.4754 50.8293 14.3242 50.8293 12.9042C50.8293 11.4842 49.7413 10.333 48.399 10.333C47.0568 10.333 45.9688 11.4842 45.9688 12.9042C45.9688 14.3242 47.0568 15.4754 48.399 15.4754Z" fill="white"/>
<rect x="117.312" y="43.0469" width="77" height="14.5645" rx="4" transform="rotate(90 117.312 43.0469)" fill="#58D53C" stroke="#FEFFFE" stroke-width="2"/>
<rect x="15.5703" y="43.0469" width="77" height="14.5645" rx="4" transform="rotate(90 15.5703 43.0469)" fill="#58D53C" stroke="#FEFFFE" stroke-width="2"/>
</svg>
