<svg width="35" height="20" viewBox="0 0 35 20" fill="none" xmlns="http://www.w3.org/2000/svg">
<path d="M4.88411 15.234C3.01211 15.234 1.41011 14.496 0.258109 13.272L1.24811 12.138C2.20211 13.146 3.53411 13.776 4.90211 13.776C6.63011 13.776 7.67411 12.912 7.67411 11.616C7.67411 10.266 6.72011 9.852 5.47811 9.276L3.57011 8.448C2.36411 7.926 0.888109 7.008 0.888109 5.064C0.888109 3.03 2.65211 1.554 5.04611 1.554C6.63011 1.554 7.99811 2.184 8.93411 3.192L8.05211 4.254C7.24211 3.48 6.27011 3.012 5.04611 3.012C3.53411 3.012 2.58011 3.732 2.58011 4.956C2.58011 6.252 3.73211 6.72 4.75811 7.152L6.64811 7.962C8.17811 8.628 9.36611 9.528 9.36611 11.49C9.36611 13.578 7.63811 15.234 4.88411 15.234ZM11.8083 0.671999H13.4283V10.392H13.4643L17.6583 5.226H19.4763L16.2003 9.15L19.9083 15H18.1263L15.2643 10.284L13.4283 12.426V15H11.8083V0.671999ZM21.434 15V5.226H23.072V15H21.434ZM23.09 3.21H21.452V1.518H23.09V3.21ZM26.0818 5.226H27.4318L27.5758 6.342H27.6298C28.5118 5.622 29.5918 4.974 30.7438 4.974C33.2638 4.974 34.6318 6.954 34.6318 9.96C34.6318 13.326 32.6158 15.234 30.3838 15.234C29.5018 15.234 28.5658 14.82 27.6838 14.1L27.7198 15.81V19.122H26.0818V5.226ZM30.1138 13.866C31.7518 13.866 32.9218 12.408 32.9218 9.978C32.9218 7.818 32.2018 6.36 30.3478 6.36C29.5018 6.36 28.6738 6.828 27.7198 7.71V12.84C28.6018 13.614 29.4658 13.866 30.1138 13.866Z" fill="#808080"/>
</svg>
