<svg width="211" height="211" viewBox="0 0 211 211" fill="none" xmlns="http://www.w3.org/2000/svg">
<path d="M99.021 12.8984C102.1 7.56511 109.798 7.5651 112.877 12.8984L189.998 146.475C193.077 151.808 189.228 158.475 183.069 158.475H28.829C22.6706 158.475 18.8216 151.808 21.9008 146.475L99.021 12.8984Z" fill="#FFE047"/>
<path d="M106.637 66.5552H98.2713C96.7742 66.5552 95.6 67.6067 95.7468 68.8255L100.972 111.867C101.089 112.918 102.205 113.731 103.496 113.731H108.399C109.72 113.731 110.806 112.918 110.923 111.867L116.148 68.8255C116.295 67.6067 115.121 66.5552 113.624 66.5552H106.637Z" fill="#404040"/>
<path d="M108.497 123.71H103.595C102.33 123.71 101.305 124.736 101.305 126V130.903C101.305 132.168 102.33 133.193 103.595 133.193H108.497C109.762 133.193 110.787 132.168 110.787 130.903V126C110.787 124.736 109.762 123.71 108.497 123.71Z" fill="#404040"/>
</svg>
