<svg width="91" height="91" viewBox="0 0 91 91" fill="none" xmlns="http://www.w3.org/2000/svg">
<path d="M42.4803 5.23033C43.8224 2.90574 47.1776 2.90574 48.5197 5.23033L81.8844 63.0197C83.2265 65.3443 81.5489 68.25 78.8647 68.25H12.1353C9.4511 68.25 7.77347 65.3443 9.11558 63.0197L42.4803 5.23033Z" fill="#FFD813"/>
<path d="M45.8005 28.4375H42.1769C41.5285 28.4375 41.0199 28.8929 41.0835 29.4208L43.3467 48.063C43.3975 48.5184 43.8807 48.8704 44.4401 48.8704H46.5634C47.1355 48.8704 47.606 48.5184 47.6568 48.063L49.92 29.4208C49.9835 28.8929 49.475 28.4375 48.8265 28.4375H45.8005Z" fill="#313131"/>
<path d="M46.6075 53.1924H44.484C43.9362 53.1924 43.4922 53.6364 43.4922 54.1842V56.3077C43.4922 56.8555 43.9362 57.2995 44.484 57.2995H46.6075C47.1553 57.2995 47.5993 56.8555 47.5993 56.3077V54.1842C47.5993 53.6364 47.1553 53.1924 46.6075 53.1924Z" fill="#313131"/>
</svg>
