<svg width="393" height="438" viewBox="0 0 393 438" fill="none" xmlns="http://www.w3.org/2000/svg">
<circle cx="196.609" cy="218.671" r="153.469" transform="rotate(-45 196.609 218.671)" fill="white" stroke="url(#paint0_linear_2232_12376)" stroke-width="2"/>
<path d="M260.168 305.36H253.971V271.05H260.168V305.36ZM244.748 287.709H240.683V282.453H244.748V271.892H250.847V304.369H244.748V287.709ZM242.567 298.022C237.361 298.964 232.997 299.064 226.205 299.064H223.081V284.288H232.799V279.578H223.031V274.471H239.145V289.048H229.427V293.907C234.187 293.907 237.856 293.709 241.972 292.915L242.567 298.022ZM261.309 310.715V315.921H229.427V302.088H235.972V310.715H261.309Z" fill="#F7451E"/>
<path d="M213.464 271V316.814H206.919V271H213.464ZM188.921 274.223C195.813 274.223 200.92 280.47 200.92 290.486C200.92 300.551 195.813 306.848 188.921 306.848C182.029 306.848 176.922 300.551 176.922 290.486C176.922 280.47 182.029 274.223 188.921 274.223ZM188.921 280.123C185.549 280.123 183.219 283.693 183.219 290.486C183.219 297.279 185.549 300.898 188.921 300.898C192.292 300.898 194.623 297.279 194.623 290.486C194.623 283.693 192.292 280.123 188.921 280.123Z" fill="#F7451E"/>
<path d="M172.413 294.056H165.769V316.715H159.224V271.05H165.769V288.602H172.413V294.056ZM146.829 281.214C146.829 289.445 150.051 297.774 157.39 301.344L153.423 306.501C148.663 304.071 145.49 299.807 143.556 294.204C141.573 300.006 138.152 304.815 132.995 307.344L129.078 302.038C136.763 298.469 140.234 289.692 140.234 281.214V274.57H146.829V281.214Z" fill="#F7451E"/>
<path d="M235.607 220.469H157.324C153.08 220.469 149.641 223.908 149.641 228.152V237.35C149.641 241.593 153.08 245.033 157.324 245.033H235.607C239.85 245.033 243.29 241.593 243.29 237.35V228.152C243.29 223.908 239.85 220.469 235.607 220.469Z" fill="#F7451E"/>
<path d="M195.836 151.068H197.435C217.011 151.068 232.904 166.961 232.904 186.537V217.795C232.904 219.269 231.725 220.447 230.251 220.447H163.019C161.546 220.447 160.367 219.269 160.367 217.795V186.537C160.367 166.961 176.26 151.068 195.836 151.068Z" fill="#F7451E"/>
<path d="M196.445 119V135.271" stroke="#F7451E" stroke-width="8" stroke-miterlimit="10" stroke-linecap="round"/>
<path d="M163.438 127.883L172.236 141.565" stroke="#F7451E" stroke-width="8" stroke-miterlimit="10" stroke-linecap="round"/>
<path d="M230.291 127.883L221.492 141.565" stroke="#F7451E" stroke-width="8" stroke-miterlimit="10" stroke-linecap="round"/>
<defs>
<linearGradient id="paint0_linear_2232_12376" x1="268.634" y1="9.39683" x2="179.305" y2="412.654" gradientUnits="userSpaceOnUse">
<stop stop-color="white"/>
<stop offset="1" stop-color="#FF927A"/>
</linearGradient>
</defs>
</svg>
