<svg width="121" height="121" viewBox="0 0 121 121" fill="none" xmlns="http://www.w3.org/2000/svg">
<path d="M60.5 120.5C27.3629 120.5 0.500004 93.6371 0.500005 60.5C0.500006 27.3629 27.3629 0.499996 60.5 0.499997C93.6371 0.499999 120.5 27.3629 120.5 60.5C120.5 93.6371 93.6371 120.5 60.5 120.5Z" fill="#58D53C" stroke="url(#paint0_linear_2232_8125)"/>
<path d="M82.6939 40.9507L56.6377 67.0069C55.2572 68.3873 52.9967 68.3873 51.6163 67.0069L38.8988 54.2894C37.0869 52.4775 34.1707 52.4775 32.3589 54.2894C30.547 56.1012 30.547 59.0175 32.3589 60.8293L47.5957 76.0662L51.6163 80.0867C52.9967 81.4672 55.2572 81.4672 56.6377 80.0867L89.2339 47.4906C91.0457 45.6788 91.0457 42.7625 89.2339 40.9507C87.422 39.1388 84.5058 39.1388 82.6939 40.9507Z" fill="#FEFFFE"/>
<defs>
<linearGradient id="paint0_linear_2232_8125" x1="60.5" y1="-2.64454e-06" x2="60.5" y2="121" gradientUnits="userSpaceOnUse">
<stop stop-color="#FEFFFE"/>
<stop offset="1" stop-color="#58D53C"/>
</linearGradient>
</defs>
</svg>
