<svg width="118" height="41" viewBox="0 0 118 41" fill="none" xmlns="http://www.w3.org/2000/svg">
<path d="M38.4815 20.142H32.2753V40.3892H27.7417V0.643054H32.2753V16.4007H38.4815V20.142ZM15.4173 10.4585C15.4173 17.5451 19.1586 24.7636 25.1007 27.6687L22.3277 31.278C18.0582 29.0332 14.8891 24.8957 13.1725 19.5698C11.4559 25.0718 8.1547 29.6934 3.57707 32.0262L0.804083 28.3729C7.05431 25.3358 10.8837 17.8092 10.8837 10.4585V3.94423H15.4173V10.4585ZM74.703 0.599039V40.4772H70.1253V0.599039H74.703ZM53.5314 3.54809C59.4735 3.54809 63.7871 9.00603 63.7871 17.5451C63.7871 26.1721 59.4735 31.5861 53.5314 31.5861C47.6773 31.5861 43.3198 26.1721 43.3198 17.5451C43.3198 9.00603 47.6773 3.54809 53.5314 3.54809ZM53.5314 7.64155C50.0102 7.64155 47.6773 11.3389 47.6773 17.5451C47.6773 23.9273 50.0102 27.5366 53.5314 27.5366C57.0527 27.5366 59.4295 23.9273 59.4295 17.5451C59.4295 11.3389 57.0527 7.64155 53.5314 7.64155ZM116.118 30.5297H111.805V0.643054H116.118V30.5297ZM103.97 14.9041H99.6564V11.2068H103.97V1.3473H108.239V29.5614H103.97V14.9041ZM101.417 23.6192C96.6193 24.4555 92.6139 24.6756 86.8478 24.6756H84.1629V12.3952H93.7583V7.33344H84.0749V3.76817H98.1599V15.7404H88.5645V21.0663C93.2741 21.0223 96.8834 20.7582 100.977 20.01L101.417 23.6192ZM117.219 35.9436V39.6409H89.8409V27.5806H94.4185V35.9436H117.219Z" fill="white"/>
</svg>
