<svg width="408" height="408" viewBox="0 0 408 408" fill="none" xmlns="http://www.w3.org/2000/svg">
<path d="M407.993 203.997C407.993 316.661 316.661 407.993 203.997 407.993C91.3324 407.993 0 316.661 0 203.997C0 91.3324 91.3324 0 203.997 0C316.661 0 407.993 91.3324 407.993 203.997Z" fill="url(#paint0_linear_3717_5047)" fill-opacity="0.2"/>
<path d="M407.993 203.997C407.993 316.661 316.661 407.993 203.997 407.993C91.3324 407.993 0 316.661 0 203.997C0 91.3324 91.3324 0 203.997 0C316.661 0 407.993 91.3324 407.993 203.997Z" fill="url(#paint1_linear_3717_5047)" fill-opacity="0.2"/>
<path fill-rule="evenodd" clip-rule="evenodd" d="M203.997 404.389C314.67 404.389 404.389 314.67 404.389 203.997C404.389 93.3233 314.67 3.60478 203.997 3.60478C93.3233 3.60478 3.60478 93.3233 3.60478 203.997C3.60478 314.67 93.3233 404.389 203.997 404.389ZM203.997 407.993C316.661 407.993 407.993 316.661 407.993 203.997C407.993 91.3324 316.661 0 203.997 0C91.3324 0 0 91.3324 0 203.997C0 316.661 91.3324 407.993 203.997 407.993Z" fill="url(#paint2_linear_3717_5047)"/>
<path d="M262.26 320.673C197.652 353.01 119.062 326.849 86.7249 262.241C54.3878 197.633 80.5488 119.043 145.157 86.7058C209.765 54.3687 288.355 80.5296 320.692 145.138C353.029 209.746 326.868 288.336 262.26 320.673Z" fill="#58D53C" fill-opacity="0.5"/>
<path fill-rule="evenodd" clip-rule="evenodd" d="M89.9485 260.628C121.395 323.455 197.819 348.896 260.647 317.449C323.475 286.003 348.915 209.579 317.469 146.751C286.023 83.9234 209.598 58.4833 146.77 89.9294C83.9425 121.375 58.5025 197.8 89.9485 260.628ZM86.7249 262.241C119.062 326.849 197.652 353.01 262.26 320.673C326.868 288.336 353.029 209.746 320.692 145.138C288.355 80.5296 209.765 54.3687 145.157 86.7058C80.5488 119.043 54.3878 197.633 86.7249 262.241Z" fill="url(#paint3_linear_3717_5047)"/>
<path fill-rule="evenodd" clip-rule="evenodd" d="M148.3 231.417C163.613 262.012 200.829 274.4 231.424 259.087C262.019 243.774 274.408 206.558 259.095 175.963C243.781 145.367 206.565 132.979 175.97 148.292C145.375 163.605 132.987 200.821 148.3 231.417ZM145.032 233.052C161.248 265.452 200.66 278.572 233.06 262.355C265.46 246.139 278.579 206.727 262.363 174.327C246.146 141.927 206.735 128.808 174.335 145.024C141.934 161.241 128.815 200.652 145.032 233.052Z" fill="url(#paint4_linear_3717_5047)"/>
<path d="M232.316 260.853C200.746 276.654 162.344 263.871 146.542 232.3C130.741 200.73 143.525 162.328 175.095 146.527C206.665 130.725 245.067 143.509 260.868 175.079C276.67 206.649 263.886 245.051 232.316 260.853Z" fill="#58D53C"/>
<defs>
<linearGradient id="paint0_linear_3717_5047" x1="3.59548" y1="168.273" x2="409.011" y2="198.675" gradientUnits="userSpaceOnUse">
<stop stop-color="#D4FF00" stop-opacity="0.5"/>
<stop offset="1" stop-color="#3BFF0F"/>
</linearGradient>
<linearGradient id="paint1_linear_3717_5047" x1="3.59548" y1="168.273" x2="409.011" y2="198.675" gradientUnits="userSpaceOnUse">
<stop stop-color="#D4FF00" stop-opacity="0.5"/>
<stop offset="1" stop-color="#3BFF0F"/>
</linearGradient>
<linearGradient id="paint2_linear_3717_5047" x1="0" y1="203.997" x2="407.993" y2="203.997" gradientUnits="userSpaceOnUse">
<stop stop-color="white" stop-opacity="0.8"/>
<stop offset="1" stop-color="#58D53C"/>
</linearGradient>
<linearGradient id="paint3_linear_3717_5047" x1="145.157" y1="86.7058" x2="262.26" y2="320.673" gradientUnits="userSpaceOnUse">
<stop stop-color="white" stop-opacity="0.8"/>
<stop offset="1" stop-color="#58D53C"/>
</linearGradient>
<linearGradient id="paint4_linear_3717_5047" x1="174.335" y1="145.024" x2="233.06" y2="262.355" gradientUnits="userSpaceOnUse">
<stop stop-color="white" stop-opacity="0.8"/>
<stop offset="1" stop-color="#58D53C"/>
</linearGradient>
</defs>
</svg>
