<svg width="42" height="42" viewBox="0 0 42 42" fill="none" xmlns="http://www.w3.org/2000/svg">
<path d="M20.9873 34.1133C28.4624 34.1133 34.6323 27.9434 34.6323 20.4814C34.6323 13.0195 28.4492 6.84961 20.9741 6.84961C13.5122 6.84961 7.35547 13.0195 7.35547 20.4814C7.35547 27.9434 13.5254 34.1133 20.9873 34.1133ZM20.9873 22.7358C20.2095 22.7358 19.7612 22.3008 19.7349 21.5098L19.5503 14.9312C19.5239 14.1138 20.104 13.5469 20.9741 13.5469C21.8179 13.5469 22.4375 14.127 22.4111 14.9443L22.2002 21.5098C22.1738 22.314 21.7388 22.7358 20.9873 22.7358ZM20.9873 27.2974C20.0908 27.2974 19.3525 26.6514 19.3525 25.7812C19.3525 24.9111 20.0776 24.2651 20.9873 24.2651C21.8838 24.2651 22.6089 24.9111 22.6089 25.7812C22.6089 26.6646 21.8706 27.2974 20.9873 27.2974Z" fill="#D4D4D4"/>
</svg>
