<svg width="844" height="844" viewBox="0 0 844 844" fill="none" xmlns="http://www.w3.org/2000/svg">
<circle cx="421.797" cy="421.806" r="73.8843" transform="rotate(63.4116 421.797 421.806)" fill="#58D53C" stroke="url(#paint0_linear_2368_8039)" stroke-width="3"/>
<path d="M772.307 488.215C735.629 681.791 548.971 808.982 355.395 772.304C161.819 735.625 34.6278 548.967 71.3061 355.391C107.984 161.815 294.642 34.6243 488.219 71.3026C681.795 107.981 808.985 294.639 772.307 488.215Z" fill="url(#paint1_linear_2368_8039)" fill-opacity="0.2" stroke="url(#paint2_linear_2368_8039)" stroke-width="3"/>
<path d="M658.319 422.161C658.319 552.58 552.594 658.305 422.175 658.305C291.757 658.305 186.031 552.58 186.031 422.161C186.031 291.742 291.757 186.017 422.175 186.017C552.594 186.017 658.319 291.742 658.319 422.161Z" fill="url(#paint3_linear_2368_8039)" fill-opacity="0.2" stroke="url(#paint4_linear_2368_8039)" stroke-width="3"/>
<path d="M529.338 636.671C410.647 696.078 266.27 648.017 206.863 529.326C147.457 410.634 195.517 266.257 314.209 206.851C432.9 147.444 577.277 195.504 636.684 314.196C696.09 432.888 648.03 577.265 529.338 636.671Z" fill="#58D53C" fill-opacity="0.4" stroke="url(#paint5_linear_2368_8039)" stroke-width="3"/>
<circle cx="421.805" cy="421.804" r="150.896" transform="rotate(63.4116 421.805 421.804)" fill="#58D53C" fill-opacity="0.5" stroke="url(#paint6_linear_2368_8039)" stroke-width="3"/>
<defs>
<linearGradient id="paint0_linear_2368_8039" x1="346.413" y1="421.806" x2="497.181" y2="421.806" gradientUnits="userSpaceOnUse">
<stop stop-color="white" stop-opacity="0.8"/>
<stop offset="1" stop-color="#58D53C"/>
</linearGradient>
<linearGradient id="paint1_linear_2368_8039" x1="87.715" y1="294.649" x2="777.276" y2="479.644" gradientUnits="userSpaceOnUse">
<stop stop-color="#D4FF00" stop-opacity="0.5"/>
<stop offset="1" stop-color="#3BFF0F"/>
</linearGradient>
<linearGradient id="paint2_linear_2368_8039" x1="69.8323" y1="355.112" x2="773.781" y2="488.494" gradientUnits="userSpaceOnUse">
<stop stop-color="white" stop-opacity="0.8"/>
<stop offset="1" stop-color="#58D53C"/>
</linearGradient>
<linearGradient id="paint3_linear_2368_8039" x1="188.72" y1="380.545" x2="661.005" y2="415.961" gradientUnits="userSpaceOnUse">
<stop stop-color="#D4FF00" stop-opacity="0.5"/>
<stop offset="1" stop-color="#3BFF0F"/>
</linearGradient>
<linearGradient id="paint4_linear_2368_8039" x1="184.531" y1="422.161" x2="659.819" y2="422.161" gradientUnits="userSpaceOnUse">
<stop stop-color="white" stop-opacity="0.8"/>
<stop offset="1" stop-color="#58D53C"/>
</linearGradient>
<linearGradient id="paint5_linear_2368_8039" x1="313.537" y1="205.509" x2="530.01" y2="638.013" gradientUnits="userSpaceOnUse">
<stop stop-color="white" stop-opacity="0.8"/>
<stop offset="1" stop-color="#58D53C"/>
</linearGradient>
<linearGradient id="paint6_linear_2368_8039" x1="269.409" y1="421.804" x2="574.201" y2="421.804" gradientUnits="userSpaceOnUse">
<stop stop-color="white" stop-opacity="0.8"/>
<stop offset="1" stop-color="#58D53C"/>
</linearGradient>
</defs>
</svg>
