<svg width="64" height="17" viewBox="0 0 64 17" fill="none" xmlns="http://www.w3.org/2000/svg">
<path d="M13.6748 0.114V16.422H11.8028V0.114H13.6748ZM6.29481 4.146C6.29481 7.152 7.95081 10.122 10.5068 11.274L9.42681 12.75C7.55481 11.868 6.13281 10.122 5.39481 7.872C4.65681 10.266 3.21681 12.156 1.25481 13.11L0.156813 11.562C2.74881 10.41 4.44081 7.26 4.44081 4.146V1.482H6.29481V4.146ZM31.8534 5.802H29.5494V9.924H27.6954V0.114H29.5494V4.272H31.8534V5.802ZM25.4634 9.276C23.6454 8.682 22.3494 7.476 21.6474 5.892C20.9274 7.62 19.6134 8.934 17.6694 9.6L16.6974 8.142C19.2714 7.278 20.6934 5.19 20.6934 2.976V2.688H17.2374V1.176H25.9674V2.688H22.5654V2.976C22.5654 5.028 23.9154 7.044 26.4174 7.854L25.4634 9.276ZM18.8574 10.716H29.5494V16.386H27.6954V12.21H18.8574V10.716ZM48.538 8.214H46.036V16.404H44.164V0.131999H46.036V6.666H48.538V8.214ZM39.052 2.634H42.85V4.146H33.328V2.634H37.198V0.366H39.052V2.634ZM38.152 5.298C40.456 5.298 42.184 6.864 42.184 9.096C42.184 11.328 40.456 12.894 38.152 12.894C35.794 12.894 34.12 11.328 34.12 9.096C34.12 6.864 35.794 5.298 38.152 5.298ZM38.152 11.364C39.466 11.364 40.42 10.464 40.42 9.096C40.42 7.728 39.466 6.828 38.152 6.828C36.838 6.828 35.884 7.728 35.884 9.096C35.884 10.464 36.838 11.364 38.152 11.364ZM63.3866 0.131999V16.386H61.5326V0.131999H63.3866ZM58.5986 1.842C58.5986 6.684 56.6546 10.788 51.0746 13.488L50.0846 12.012C54.3506 9.942 56.3846 7.098 56.6906 3.354H50.8946V1.842H58.5986Z" fill="#FEFFFE"/>
</svg>
