<svg width="1024" height="1024" viewBox="0 0 1024 1024" fill="none" xmlns="http://www.w3.org/2000/svg">
<path d="M1024 512C1024 794.77 794.77 1024 512 1024C229.23 1024 0 794.77 0 512C0 229.23 229.23 0 512 0C794.77 0 1024 229.23 1024 512Z" fill="url(#paint0_linear_2232_8254)" fill-opacity="0.2"/>
<path fill-rule="evenodd" clip-rule="evenodd" d="M512 1014.95C789.773 1014.95 1014.95 789.773 1014.95 512C1014.95 234.227 789.773 9.04742 512 9.04742C234.227 9.04742 9.04742 234.227 9.04742 512C9.04742 789.773 234.227 1014.95 512 1014.95ZM512 1024C794.77 1024 1024 794.77 1024 512C1024 229.23 794.77 0 512 0C229.23 0 0 229.23 0 512C0 794.77 229.23 1024 512 1024Z" fill="url(#paint1_linear_2232_8254)"/>
<path d="M658.222 804.84C496.065 886.002 298.817 820.342 217.656 658.185C136.495 496.028 202.155 298.78 364.311 217.619C526.468 136.458 723.716 202.118 804.877 364.275C886.038 526.431 820.378 723.679 658.222 804.84Z" fill="#58D53C" fill-opacity="0.5"/>
<path fill-rule="evenodd" clip-rule="evenodd" d="M225.746 654.136C304.671 811.824 496.484 875.674 654.172 796.75C811.86 717.825 875.711 526.012 796.786 368.324C717.862 210.636 526.049 146.785 368.361 225.71C210.672 304.635 146.822 496.447 225.746 654.136ZM217.656 658.185C298.817 820.342 496.065 886.002 658.222 804.84C820.378 723.679 886.038 526.431 804.877 364.275C723.716 202.118 526.468 136.458 364.311 217.619C202.155 298.78 136.495 496.028 217.656 658.185Z" fill="url(#paint2_linear_2232_8254)"/>
<path d="M583.945 656.468C503.732 696.616 406.161 664.136 366.014 583.924C325.867 503.711 358.346 406.14 438.559 365.992C518.772 325.845 616.343 358.325 656.49 438.537C696.637 518.75 664.158 616.321 583.945 656.468Z" fill="#58D53C"/>
<path fill-rule="evenodd" clip-rule="evenodd" d="M374.105 579.874C412.016 655.619 504.151 686.289 579.896 648.378C655.64 610.467 686.31 518.331 648.399 442.587C610.489 366.842 518.353 336.172 442.608 374.083C366.864 411.994 336.194 504.13 374.105 579.874ZM366.014 583.924C406.161 664.136 503.732 696.616 583.945 656.468C664.158 616.321 696.637 518.75 656.49 438.537C616.343 358.325 518.772 325.845 438.559 365.992C358.346 406.14 325.867 503.711 366.014 583.924Z" fill="url(#paint3_linear_2232_8254)"/>
<defs>
<linearGradient id="paint0_linear_2232_8254" x1="9.02409" y1="422.338" x2="1026.55" y2="498.642" gradientUnits="userSpaceOnUse">
<stop stop-color="#D4FF00" stop-opacity="0.5"/>
<stop offset="1" stop-color="#3BFF0F"/>
</linearGradient>
<linearGradient id="paint1_linear_2232_8254" x1="0" y1="512" x2="1024" y2="512" gradientUnits="userSpaceOnUse">
<stop stop-color="white" stop-opacity="0.8"/>
<stop offset="1" stop-color="#58D53C"/>
</linearGradient>
<linearGradient id="paint2_linear_2232_8254" x1="364.311" y1="217.619" x2="658.222" y2="804.84" gradientUnits="userSpaceOnUse">
<stop stop-color="white" stop-opacity="0.8"/>
<stop offset="1" stop-color="#58D53C"/>
</linearGradient>
<linearGradient id="paint3_linear_2232_8254" x1="438.559" y1="365.992" x2="583.945" y2="656.468" gradientUnits="userSpaceOnUse">
<stop stop-color="white" stop-opacity="0.8"/>
<stop offset="1" stop-color="#58D53C"/>
</linearGradient>
</defs>
</svg>
