<svg width="119" height="159" viewBox="0 0 119 159" fill="none" xmlns="http://www.w3.org/2000/svg">
<path d="M57.1972 0.346297L5.04608 18.937C2.15419 19.9577 0.234375 22.728 0.234375 25.8386V89.3143C0.234375 90.4808 0.258679 91.623 0.331584 92.7895C1.32795 111.307 11.4131 128.075 26.5287 138.428L53.3333 156.776C56.8813 159.206 61.5229 159.206 65.071 156.776L91.8756 138.428C106.991 128.075 117.052 111.307 118.073 92.7895C118.146 91.6473 118.17 90.4808 118.17 89.3143V25.8386C118.17 22.728 116.25 19.9577 113.358 18.937L61.207 0.346297C59.919 -0.115432 58.5095 -0.115432 57.2216 0.346297H57.1972Z" fill="#58D53C"/>
<path d="M81.9211 66.9828V63.951C81.9211 51.5416 71.862 41.4824 59.4526 41.4824C47.0432 41.4824 36.9841 51.5416 36.9841 63.951V66.6538C33.8817 66.9358 31.4609 69.4976 31.4609 72.6704V104.775C31.4609 108.136 34.1872 110.839 37.5246 110.839H79.9234C83.2843 110.839 85.9871 108.112 85.9871 104.775V72.6704C85.9871 70.0146 84.2714 67.8054 81.9211 66.9593V66.9828Z" fill="#FEFFFE"/>
<path d="M59.4555 52.6699C64.6026 52.6699 68.7625 56.8299 68.7625 61.977V64.8208H50.1484V61.977C50.1484 56.8299 54.3084 52.6699 59.4555 52.6699Z" fill="#58D53C"/>
<path d="M58.7246 90.5557C61.4504 90.5557 63.6602 88.346 63.6602 85.6201C63.6602 82.8943 61.4504 80.6846 58.7246 80.6846C55.9988 80.6846 53.7891 82.8943 53.7891 85.6201C53.7891 88.346 55.9988 90.5557 58.7246 90.5557Z" fill="#58D53C"/>
<path d="M55.7656 86.6309H61.6883V93.8462C61.6883 95.4914 60.3721 96.8075 58.727 96.8075C57.0818 96.8075 55.7656 95.4914 55.7656 93.8462V86.6309Z" fill="#58D53C"/>
</svg>
