<svg width="284" height="284" viewBox="0 0 284 284" fill="none" xmlns="http://www.w3.org/2000/svg">
<circle cx="141.998" cy="141.995" r="141.42" transform="rotate(-90 141.998 141.995)" fill="white"/>
<path d="M191.362 193.291H91.0199C85.581 193.291 81.1719 196.331 81.1719 200.081V208.21C81.1719 211.96 85.581 215 91.0199 215H191.362C196.801 215 201.21 211.96 201.21 208.21V200.081C201.21 196.331 196.801 193.291 191.362 193.291Z" fill="#DF2800"/>
<path d="M202.143 180.522H81.5183C74.98 180.522 69.6797 182.31 69.6797 184.516V189.298C69.6797 191.504 74.98 193.292 81.5183 193.292H202.143C208.681 193.292 213.981 191.504 213.981 189.298V184.516C213.981 182.31 208.681 180.522 202.143 180.522Z" fill="white"/>
<path d="M140.821 94.3083H142.858C167.791 94.3083 188.031 115.47 188.031 141.536V183.157C188.031 185.119 186.53 186.689 184.653 186.689H99.0263C97.1497 186.689 95.6484 185.119 95.6484 183.157V141.536C95.6484 115.47 115.889 94.3083 140.821 94.3083Z" fill="url(#paint0_linear_3321_6356)"/>
<path d="M141.118 102H142.882C164.472 102 182 119.867 182 141.876V177.018C182 178.675 180.7 180 179.075 180H104.925C103.3 180 102 178.675 102 177.018V141.876C102 119.867 119.528 102 141.118 102Z" fill="#FF5530"/>
<path d="M140.086 62.8074V81.2531" stroke="#DF2800" stroke-width="9" stroke-miterlimit="10" stroke-linecap="round"/>
<path d="M97.5234 72.7397L108.875 86.9288" stroke="#DF2800" stroke-width="9" stroke-miterlimit="10" stroke-linecap="round"/>
<path d="M184.07 72.7397L172.719 86.9288" stroke="#DF2800" stroke-width="9" stroke-miterlimit="10" stroke-linecap="round"/>
<path d="M141.118 147H142.882C164.472 147 182 154.788 182 164.382V179.7C182 180.422 180.7 181 179.075 181H104.925C103.3 181 102 180.422 102 179.7V164.382C102 154.788 119.528 147 141.118 147Z" fill="url(#paint1_linear_3321_6356)" fill-opacity="0.5"/>
<defs>
<linearGradient id="paint0_linear_3321_6356" x1="141.999" y1="152.052" x2="141.84" y2="186.689" gradientUnits="userSpaceOnUse">
<stop stop-color="#F7451E"/>
<stop offset="1" stop-color="#FF1E00"/>
</linearGradient>
<linearGradient id="paint1_linear_3321_6356" x1="142.138" y1="168.252" x2="142.113" y2="181" gradientUnits="userSpaceOnUse">
<stop stop-color="#F7451E"/>
<stop offset="1" stop-color="#FF1E00"/>
</linearGradient>
</defs>
</svg>
