<svg width="244" height="244" viewBox="0 0 244 244" fill="none" xmlns="http://www.w3.org/2000/svg">
<path d="M243.696 121.848C243.696 189.143 189.143 243.696 121.848 243.696C54.5532 243.696 0 189.143 0 121.848C0 54.5532 54.5532 0 121.848 0C189.143 0 243.696 54.5532 243.696 121.848Z" fill="url(#paint0_linear_3305_4223)" fill-opacity="0.2"/>
<path d="M243.696 121.848C243.696 189.143 189.143 243.696 121.848 243.696C54.5532 243.696 0 189.143 0 121.848C0 54.5532 54.5532 0 121.848 0C189.143 0 243.696 54.5532 243.696 121.848Z" fill="url(#paint1_linear_3305_4223)" fill-opacity="0.2"/>
<path fill-rule="evenodd" clip-rule="evenodd" d="M121.848 241.543C187.953 241.543 241.543 187.953 241.543 121.848C241.543 55.7423 187.953 2.15314 121.848 2.15314C55.7423 2.15314 2.15314 55.7423 2.15314 121.848C2.15314 187.953 55.7423 241.543 121.848 241.543ZM121.848 243.696C189.143 243.696 243.696 189.143 243.696 121.848C243.696 54.5532 189.143 0 121.848 0C54.5532 0 0 54.5532 0 121.848C0 189.143 54.5532 243.696 121.848 243.696Z" fill="url(#paint2_linear_3305_4223)"/>
<path d="M156.649 191.539C118.059 210.854 71.1168 195.228 51.8018 156.637C32.4867 118.047 48.1127 71.1047 86.7035 51.7897C125.294 32.4746 172.236 48.1006 191.551 86.6913C210.866 125.282 195.24 172.224 156.649 191.539Z" fill="#58D53C" fill-opacity="0.5"/>
<path fill-rule="evenodd" clip-rule="evenodd" d="M53.7272 155.674C72.51 193.201 118.158 208.396 155.686 189.614C193.213 170.831 208.409 125.182 189.626 87.655C170.843 50.1277 125.194 34.9323 87.6672 53.7151C50.1398 72.4979 34.9444 118.146 53.7272 155.674ZM51.8018 156.637C71.1168 195.228 118.059 210.854 156.649 191.539C195.24 172.224 210.866 125.282 191.551 86.6913C172.236 48.1006 125.294 32.4746 86.7035 51.7897C48.1127 71.1047 32.4867 118.047 51.8018 156.637Z" fill="url(#paint3_linear_3305_4223)"/>
<path fill-rule="evenodd" clip-rule="evenodd" d="M88.5801 138.226C97.7268 156.5 119.956 163.9 138.231 154.754C156.505 145.607 163.905 123.378 154.758 105.103C145.612 86.8284 123.382 79.4288 105.108 88.5754C86.8332 97.722 79.4335 119.951 88.5801 138.226ZM86.6281 139.203C96.3144 158.556 119.855 166.392 139.208 156.706C158.56 147.019 166.396 123.479 156.71 104.126C147.024 84.7734 123.483 76.9372 104.131 86.6234C84.7782 96.3096 76.9419 119.85 86.6281 139.203Z" fill="url(#paint4_linear_3305_4223)"/>
<path d="M138.761 155.808C119.904 165.246 96.9667 157.611 87.5285 138.754C78.0904 119.897 85.7259 96.959 104.583 87.5208C123.44 78.0827 146.378 85.7182 155.816 104.575C165.254 123.432 157.618 146.37 138.761 155.808Z" fill="#58D53C"/>
<defs>
<linearGradient id="paint0_linear_3305_4223" x1="2.14759" y1="100.51" x2="244.303" y2="118.669" gradientUnits="userSpaceOnUse">
<stop stop-color="#D4FF00" stop-opacity="0.5"/>
<stop offset="1" stop-color="#3BFF0F"/>
</linearGradient>
<linearGradient id="paint1_linear_3305_4223" x1="2.14759" y1="100.51" x2="244.303" y2="118.669" gradientUnits="userSpaceOnUse">
<stop stop-color="#D4FF00" stop-opacity="0.5"/>
<stop offset="1" stop-color="#3BFF0F"/>
</linearGradient>
<linearGradient id="paint2_linear_3305_4223" x1="0" y1="121.848" x2="243.696" y2="121.848" gradientUnits="userSpaceOnUse">
<stop stop-color="white" stop-opacity="0.8"/>
<stop offset="1" stop-color="#58D53C"/>
</linearGradient>
<linearGradient id="paint3_linear_3305_4223" x1="86.7035" y1="51.7897" x2="156.649" y2="191.539" gradientUnits="userSpaceOnUse">
<stop stop-color="white" stop-opacity="0.8"/>
<stop offset="1" stop-color="#58D53C"/>
</linearGradient>
<linearGradient id="paint4_linear_3305_4223" x1="104.131" y1="86.6234" x2="139.208" y2="156.706" gradientUnits="userSpaceOnUse">
<stop stop-color="white" stop-opacity="0.8"/>
<stop offset="1" stop-color="#58D53C"/>
</linearGradient>
</defs>
</svg>
