<svg width="312" height="390" viewBox="0 0 312 390" fill="none" xmlns="http://www.w3.org/2000/svg">
<g clip-path="url(#clip0_3661_4970)">
<rect width="312" height="390" fill="#F9FFEF"/>
<path d="M359.993 389.997C359.993 502.661 268.661 593.993 155.997 593.993C43.3325 593.993 -48 502.661 -48 389.997C-48 277.332 43.3325 186 155.997 186C268.661 186 359.993 277.332 359.993 389.997Z" fill="url(#paint0_linear_3661_4970)" fill-opacity="0.2"/>
<path d="M359.993 389.997C359.993 502.661 268.661 593.993 155.997 593.993C43.3325 593.993 -48 502.661 -48 389.997C-48 277.332 43.3325 186 155.997 186C268.661 186 359.993 277.332 359.993 389.997Z" fill="url(#paint1_linear_3661_4970)" fill-opacity="0.2"/>
<path fill-rule="evenodd" clip-rule="evenodd" d="M155.997 590.389C266.67 590.389 356.389 500.67 356.389 389.997C356.389 279.323 266.67 189.605 155.997 189.605C45.3233 189.605 -44.3952 279.323 -44.3952 389.997C-44.3952 500.67 45.3233 590.389 155.997 590.389ZM155.997 593.993C268.661 593.993 359.993 502.661 359.993 389.997C359.993 277.332 268.661 186 155.997 186C43.3325 186 -48 277.332 -48 389.997C-48 502.661 43.3325 593.993 155.997 593.993Z" fill="url(#paint2_linear_3661_4970)"/>
<path d="M214.26 506.673C149.652 539.01 71.0621 512.849 38.7249 448.241C6.38784 383.633 32.5488 305.043 97.157 272.706C161.765 240.369 240.355 266.53 272.692 331.138C305.029 395.746 278.868 474.336 214.26 506.673Z" fill="#58D53C" fill-opacity="0.5"/>
<path fill-rule="evenodd" clip-rule="evenodd" d="M41.9485 446.628C73.3945 509.455 149.819 534.896 212.647 503.449C275.475 472.003 300.915 395.579 269.469 332.751C238.023 269.923 161.598 244.483 98.7705 275.929C35.9425 307.375 10.5025 383.8 41.9485 446.628ZM38.7249 448.241C71.0621 512.849 149.652 539.01 214.26 506.673C278.868 474.336 305.029 395.746 272.692 331.138C240.355 266.53 161.765 240.369 97.157 272.706C32.5488 305.043 6.38784 383.633 38.7249 448.241Z" fill="url(#paint3_linear_3661_4970)"/>
<path fill-rule="evenodd" clip-rule="evenodd" d="M100.3 417.417C115.613 448.012 152.829 460.4 183.424 445.087C214.019 429.774 226.408 392.558 211.095 361.963C195.781 331.367 158.565 318.979 127.97 334.292C97.375 349.605 84.9865 386.821 100.3 417.417ZM97.0317 419.052C113.248 451.452 152.66 464.572 185.06 448.355C217.46 432.139 230.579 392.727 214.363 360.327C198.146 327.927 158.735 314.808 126.335 331.024C93.9345 347.241 80.8152 386.652 97.0317 419.052Z" fill="url(#paint4_linear_3661_4970)"/>
<path d="M184.316 446.853C152.746 462.654 114.344 449.871 98.5425 418.3C82.7412 386.73 95.5246 348.328 127.095 332.527C158.665 316.725 197.067 329.509 212.868 361.079C228.67 392.649 215.886 431.051 184.316 446.853Z" fill="#58D53C"/>
<path d="M75.2354 56.0723V85.8223H72.0811V56.0723H75.2354ZM69.1924 60.7871V63.3438H51.2627V60.7871H58.6006V56.3711H61.7881V60.7871H69.1924ZM60.2607 65.502C64.6104 65.502 67.7646 68.3574 67.7646 72.4082C67.7646 76.4922 64.6104 79.3145 60.2607 79.3477C55.9443 79.3145 52.79 76.4922 52.79 72.4082C52.79 68.3574 55.9443 65.502 60.2607 65.502ZM60.2607 68.0918C57.6709 68.0918 55.7783 69.8516 55.7783 72.4082C55.7783 74.998 57.6709 76.7246 60.2607 76.6914C62.8506 76.7246 64.7432 74.998 64.7432 72.4082C64.7432 69.8516 62.8506 68.0918 60.2607 68.0918ZM88.0518 58.2969C92.0859 58.2969 95.041 61.7168 95.5225 67.2285H101.665V56.0723H104.786V85.8887H101.665V69.7852H95.5557C95.207 75.5791 92.1855 79.1816 88.0518 79.1816C83.6025 79.1816 80.4814 75.1309 80.5146 68.7227C80.4814 62.3477 83.6025 58.2969 88.0518 58.2969ZM88.0518 61.1191C85.3623 61.1191 83.5029 64.041 83.5029 68.7227C83.5029 73.4375 85.3623 76.3594 88.0518 76.3594C90.7412 76.3594 92.6006 73.4375 92.6006 68.7227C92.6006 64.041 90.7412 61.1191 88.0518 61.1191ZM136.595 79.6133V82.2695H109.368V79.6133H121.354V74.4004H112.688V64.9375H130.153V60.7539H112.622V58.1641H133.274V67.4609H115.81V71.8105H133.972V74.4004H124.476V79.6133H136.595ZM162.858 70.1836V72.7734H142.14V58.7285H162.593V61.3184H145.261V70.1836H162.858ZM165.979 79.2812V81.9043H138.753V79.2812H165.979ZM177.069 57.9648C181.651 57.9648 185.071 60.8535 185.071 65.0371C185.071 68.7227 182.415 71.3955 178.663 71.9766V76.6914C181.303 76.5752 183.942 76.376 186.399 76.0605L186.632 78.418C180.356 79.5137 173.417 79.5469 168.271 79.5137L167.772 76.9238C170.08 76.9072 172.736 76.8906 175.509 76.8242V71.9766C171.657 71.4287 169.034 68.7393 169.067 65.0371C169.034 60.8535 172.388 57.9648 177.069 57.9648ZM177.069 60.6211C174.214 60.6543 172.122 62.3809 172.122 65.0371C172.122 67.6934 174.214 69.4531 177.069 69.4199C179.892 69.4531 181.95 67.6934 181.983 65.0371C181.95 62.3809 179.892 60.6543 177.069 60.6211ZM191.347 56.0723V68.1582H195.929V70.8145H191.347V85.8223H188.192V56.0723H191.347ZM229.198 56.0723V63.7754H233.515V66.4648H229.198V74.002H226.044V56.0723H229.198ZM229.198 75.5625V85.457H210.206V75.5625H229.198ZM213.294 78.0527V82.9004H226.077V78.0527H213.294ZM223.587 59.0938V61.6172H205.856V59.0938H213.161V55.8398H216.315V59.0938H223.587ZM214.722 62.9121C219.005 62.9121 221.927 65.0371 221.927 68.2246C221.927 71.4453 219.005 73.5371 214.722 73.5703C210.372 73.5371 207.483 71.4453 207.483 68.2246C207.483 65.0371 210.372 62.9121 214.722 62.9121ZM214.722 65.3359C212.198 65.3027 210.505 66.4316 210.538 68.2246C210.505 70.084 212.198 71.1797 214.722 71.1797C217.245 71.1797 218.938 70.084 218.972 68.2246C218.938 66.4316 217.245 65.3027 214.722 65.3359ZM242.579 59.5918C242.546 66.2656 241.716 73.1387 237.565 78.9824L235.108 77.5879C238.578 72.9395 239.624 67.793 239.856 62.1816H235.806V59.5918H242.579ZM249.187 59.5918C249.187 62.0986 249.137 64.8379 248.821 67.5938H252.308V56.8359H255.296V84.3613H252.308V70.1504H248.456C247.775 73.8525 246.53 77.5215 244.239 80.7754L241.782 79.3477C245.634 74.1846 246.331 67.9258 246.464 62.1816H243.476V59.5918H249.187ZM260.94 56.0723V85.8223H257.919V56.0723H260.94ZM54.6328 100.039V108.938H58.9492V111.594H54.6328V121.92H51.4785V100.039H54.6328ZM55.8945 126.635V129.191H35.7734V119.629H38.9277V126.635H55.8945ZM39.625 102.098C44.1074 102.098 47.5273 105.152 47.5605 109.502C47.5273 113.818 44.1074 116.906 39.625 116.906C35.1426 116.906 31.6895 113.818 31.7227 109.502C31.6895 105.152 35.1426 102.098 39.625 102.098ZM39.625 104.854C36.9023 104.854 34.7773 106.746 34.8105 109.502C34.7773 112.258 36.9023 114.15 39.625 114.15C42.3809 114.15 44.4727 112.258 44.4727 109.502C44.4727 106.746 42.3809 104.854 39.625 104.854ZM85.4453 100.105V121.887H82.291V110.697H76.6133V108.141H82.291V100.105H85.4453ZM86.2422 126.635V129.191H66.1211V119.928H69.2754V126.635H86.2422ZM71.3008 106.115C71.3008 109.834 73.9902 113.553 78.4727 115.047L76.8457 117.57C73.5088 116.392 71.0352 114.001 69.7402 111.062C68.4453 114.333 65.8389 116.973 62.3027 118.234L60.6758 115.678C65.2578 114.117 68.0801 110.199 68.0801 106.115V104.953H61.6387V102.363H77.6758V104.953H71.3008V106.115ZM113.402 100.105V109.668H117.719V112.291H113.402V122.352H110.248V100.105H113.402ZM107.791 103.559V106.115H90.0605V103.559H97.3652V100.072H100.52V103.559H107.791ZM98.9258 107.543C103.209 107.543 106.131 109.768 106.131 113.154C106.131 116.541 103.209 118.732 98.9258 118.732C94.6094 118.732 91.6875 116.541 91.6875 113.154C91.6875 109.768 94.6094 107.543 98.9258 107.543ZM98.9258 109.967C96.4023 109.967 94.709 111.195 94.7422 113.154C94.709 115.08 96.4023 116.275 98.9258 116.275C101.449 116.275 103.143 115.08 103.176 113.154C103.143 111.195 101.449 109.967 98.9258 109.967ZM114.664 126.635V129.191H94.543V120.592H97.6973V126.635H114.664ZM154.84 116.84V119.396H142.754V129.789H139.666V119.396H127.713V116.84H154.84ZM152.283 101.832V104.355H143.086C143.136 108.041 147.718 111.328 153.346 112.092L152.184 114.582C147.303 113.818 143.086 111.411 141.293 108.008C139.45 111.411 135.25 113.818 130.436 114.582L129.24 112.092C134.802 111.328 139.384 108.041 139.5 104.355H130.236V101.832H152.283ZM182.465 100.072V118.832H179.477V110.531H176.023V117.803H173.068V100.637H176.023V107.941H179.477V100.072H182.465ZM171.973 103.459V105.949H156.932V103.459H162.941V100.305H166.062V103.459H171.973ZM164.469 107.344C168.254 107.344 170.91 109.369 170.91 112.457C170.91 115.545 168.254 117.57 164.469 117.57C160.75 117.57 158.094 115.545 158.094 112.457C158.094 109.369 160.75 107.344 164.469 107.344ZM164.469 109.668C162.377 109.668 160.916 110.764 160.916 112.457C160.916 114.15 162.377 115.279 164.469 115.279C166.627 115.279 168.055 114.15 168.055 112.457C168.055 110.764 166.627 109.668 164.469 109.668ZM172.504 119.264C178.812 119.264 182.598 121.156 182.631 124.543C182.598 127.863 178.812 129.789 172.504 129.756C166.195 129.789 162.41 127.863 162.443 124.543C162.41 121.156 166.195 119.264 172.504 119.264ZM172.504 121.688C168.088 121.688 165.531 122.684 165.564 124.543C165.531 126.336 168.088 127.365 172.504 127.332C176.953 127.365 179.443 126.336 179.477 124.543C179.443 122.684 176.953 121.688 172.504 121.688ZM209.658 100.072V112.125H214.439V114.748H209.658V129.822H206.537V100.072H209.658ZM203.947 104.721V107.311H186.316V104.721H193.654V100.471H196.809V104.721H203.947ZM195.248 109.502C199.498 109.502 202.619 112.357 202.652 116.408C202.619 120.492 199.498 123.314 195.248 123.348C190.965 123.314 187.844 120.492 187.844 116.408C187.844 112.357 190.965 109.502 195.248 109.502ZM195.248 112.092C192.725 112.092 190.832 113.852 190.865 116.408C190.832 118.998 192.725 120.725 195.248 120.691C197.771 120.725 199.631 118.998 199.631 116.408C199.631 113.852 197.771 112.092 195.248 112.092ZM224.932 108.207C224.932 112.955 226.924 118.035 230.908 120.459L229.148 122.883C226.359 121.206 224.467 118.234 223.471 114.781C222.358 118.566 220.316 121.787 217.428 123.547L215.469 121.189C219.686 118.666 221.877 113.42 221.877 108.34V102.795H224.932V108.207ZM241.467 100.072V129.822H238.445V100.072H241.467ZM235.291 100.637V128.361H232.303V113.154H227.688V110.531H232.303V100.637H235.291ZM272.479 123.48V126.104H245.252V123.48H251.76V115.711C249.319 114.366 247.842 112.225 247.842 109.568C247.842 104.887 252.424 101.799 258.799 101.799C265.207 101.799 269.789 104.887 269.789 109.568C269.789 112.191 268.361 114.3 265.971 115.645V123.48H272.479ZM258.799 104.322C254.117 104.322 250.896 106.348 250.896 109.568C250.896 112.756 254.117 114.848 258.799 114.848C263.447 114.848 266.734 112.756 266.734 109.568C266.734 106.348 263.447 104.322 258.799 104.322ZM254.881 123.48H262.783V116.84C261.571 117.155 260.227 117.305 258.799 117.305C257.404 117.305 256.076 117.155 254.881 116.873V123.48ZM280.115 102.961L279.816 120.061H276.529L276.23 102.961H280.115ZM278.189 127.232C276.895 127.232 275.799 126.17 275.832 124.875C275.799 123.58 276.895 122.518 278.189 122.518C279.451 122.518 280.547 123.58 280.547 124.875C280.547 126.17 279.451 127.232 278.189 127.232Z" fill="#676767"/>
</g>
<defs>
<linearGradient id="paint0_linear_3661_4970" x1="-44.4045" y1="354.273" x2="361.011" y2="384.675" gradientUnits="userSpaceOnUse">
<stop stop-color="#D4FF00" stop-opacity="0.5"/>
<stop offset="1" stop-color="#3BFF0F"/>
</linearGradient>
<linearGradient id="paint1_linear_3661_4970" x1="-44.4045" y1="354.273" x2="361.011" y2="384.675" gradientUnits="userSpaceOnUse">
<stop stop-color="#D4FF00" stop-opacity="0.5"/>
<stop offset="1" stop-color="#3BFF0F"/>
</linearGradient>
<linearGradient id="paint2_linear_3661_4970" x1="-48" y1="389.997" x2="359.993" y2="389.997" gradientUnits="userSpaceOnUse">
<stop stop-color="white" stop-opacity="0.8"/>
<stop offset="1" stop-color="#58D53C"/>
</linearGradient>
<linearGradient id="paint3_linear_3661_4970" x1="97.157" y1="272.706" x2="214.26" y2="506.673" gradientUnits="userSpaceOnUse">
<stop stop-color="white" stop-opacity="0.8"/>
<stop offset="1" stop-color="#58D53C"/>
</linearGradient>
<linearGradient id="paint4_linear_3661_4970" x1="126.335" y1="331.024" x2="185.06" y2="448.355" gradientUnits="userSpaceOnUse">
<stop stop-color="white" stop-opacity="0.8"/>
<stop offset="1" stop-color="#58D53C"/>
</linearGradient>
<clipPath id="clip0_3661_4970">
<rect width="312" height="390" fill="white"/>
</clipPath>
</defs>
</svg>
