<svg width="335" height="334" viewBox="0 0 335 334" fill="none" xmlns="http://www.w3.org/2000/svg">
<circle cx="167.631" cy="166.996" r="117.95" transform="rotate(-45 167.631 166.996)" fill="white"/>
<path d="M206.657 199.285H128.001C123.737 199.285 120.281 202.741 120.281 207.004V216.247C120.281 220.51 123.737 223.967 128.001 223.967H206.657C210.921 223.967 214.377 220.51 214.377 216.247V207.004C214.377 202.741 210.921 199.285 206.657 199.285Z" fill="#DF2800"/>
<path d="M206.98 188.447H128.03C123.75 188.447 120.281 191.403 120.281 195.05V202.955C120.281 206.602 123.75 209.559 128.03 209.559H206.98C211.259 209.559 214.729 206.602 214.729 202.955V195.05C214.729 191.403 211.259 188.447 206.98 188.447Z" fill="white"/>
<path d="M166.706 129.486H168.301C187.825 129.486 203.675 146.057 203.675 166.47V199.064C203.675 200.6 202.5 201.829 201.03 201.829H133.977C132.508 201.829 131.332 200.6 131.332 199.064V166.47C131.332 146.057 147.182 129.486 166.706 129.486Z" fill="#F7451E"/>
<path d="M166.949 104V118.445" stroke="#DF2800" stroke-width="8.88916" stroke-miterlimit="10" stroke-linecap="round"/>
<path d="M133.617 111.778L142.506 122.89" stroke="#DF2800" stroke-width="8.88916" stroke-miterlimit="10" stroke-linecap="round"/>
<path d="M201.393 111.778L192.504 122.89" stroke="#DF2800" stroke-width="8.88916" stroke-miterlimit="10" stroke-linecap="round"/>
<path d="M143.617 157.891C145.099 153.631 150.617 144.224 160.84 140.668" stroke="white" stroke-width="6.66687" stroke-linecap="round"/>
</svg>
