<svg width="393" height="438" viewBox="0 0 393 438" fill="none" xmlns="http://www.w3.org/2000/svg">
<circle cx="196.609" cy="218.67" r="153.469" transform="rotate(-45 196.609 218.67)" fill="white" stroke="url(#paint0_linear_2232_12378)" stroke-width="2"/>
<path d="M259.427 271.366V317.032H252.882V294.174H244.056V288.869H252.882V271.366H259.427ZM244.354 276.077C244.354 289.861 239.891 301.215 224.174 309.148L220.703 304.091C232.107 298.389 236.768 291.199 237.71 281.283H222.885V276.077H244.354Z" fill="#F7451E"/>
<path d="M207.272 283.167V271.366H213.817V304.686H207.272V288.472H200.132V283.167H207.272ZM199.983 298.785C194.976 297.149 191.554 293.926 189.621 289.761C187.588 294.323 184.018 297.893 178.663 299.678L175.391 294.472C182.927 292.092 186.15 285.993 186.15 280.291V279.647H177.176V274.441H201.719V279.647H192.844V280.242C192.844 285.646 195.967 291.299 203.157 293.678L199.983 298.785ZM214.858 311.032V316.238H183.72V301.909H190.265V311.032H214.858Z" fill="#F7451E"/>
<path d="M172.416 294.174H165.772V317.032H159.227V271.366H165.772V288.77H172.416V294.174ZM146.782 283.663C146.782 290.604 150.401 298.736 157.888 302.157L154.269 307.314C149.112 304.983 145.641 300.422 143.608 295.017C141.576 301.017 137.906 305.925 132.7 308.454L129.031 303.248C136.518 299.827 140.237 291.199 140.237 283.663V281.134H130.767V275.73H155.855V281.134H146.782V283.663Z" fill="#F7451E"/>
<path d="M257.189 217.196H202.032C201.76 217.196 201.488 217.06 201.325 216.843L156.026 157.666C155.564 157.069 155.999 156.227 156.732 156.227H214.47C214.741 156.227 214.986 156.363 215.176 156.553L259.688 211.955C261.372 214.046 259.878 217.169 257.189 217.169V217.196Z" stroke="#F7451E" stroke-width="6.63543" stroke-miterlimit="10" stroke-linecap="round"/>
<path d="M138.372 247.804C156.251 247.804 170.744 233.31 170.744 215.432C170.744 197.553 156.251 183.059 138.372 183.059C120.494 183.059 106 197.553 106 215.432C106 233.31 120.494 247.804 138.372 247.804Z" fill="#F7451E"/>
<path d="M260.372 247.804C278.251 247.804 292.744 233.31 292.744 215.432C292.744 197.553 278.251 183.059 260.372 183.059C242.493 183.059 228 197.553 228 215.432C228 233.31 242.493 247.804 260.372 247.804Z" fill="#F7451E"/>
<path d="M260.5 236C271.822 236 281 226.822 281 215.5C281 204.178 271.822 195 260.5 195C249.178 195 240 204.178 240 215.5C240 226.822 249.178 236 260.5 236Z" fill="white"/>
<path d="M201.58 232.405C208.074 232.405 213.339 227.14 213.339 220.646C213.339 214.151 208.074 208.886 201.58 208.886C195.085 208.886 189.82 214.151 189.82 220.646C189.82 227.14 195.085 232.405 201.58 232.405Z" fill="#F7451E"/>
<path d="M138.395 215.431L160.42 138.955C161.344 135.723 158.927 132.491 155.559 132.491H135.055" stroke="#F7451E" stroke-width="6.63543" stroke-miterlimit="10" stroke-linecap="round"/>
<path d="M201.555 217.196L215.867 148.188" stroke="#F7451E" stroke-width="6.63543" stroke-miterlimit="10" stroke-linecap="round"/>
<path d="M229.001 132.464H202.793C200.288 132.464 198.258 134.495 198.258 136.999V143.653C198.258 146.158 200.288 148.189 202.793 148.189H229.001C231.505 148.189 233.536 146.158 233.536 143.653V136.999C233.536 134.495 231.505 132.464 229.001 132.464Z" fill="#F7451E"/>
<path d="M137.293 155.087C131.02 155.087 125.914 149.981 125.914 143.708C125.914 137.434 131.02 132.328 137.293 132.328" stroke="#F7451E" stroke-width="6.63543" stroke-miterlimit="10" stroke-linecap="round"/>
<path d="M138.5 236C149.822 236 159 226.822 159 215.5C159 204.178 149.822 195 138.5 195C127.178 195 118 204.178 118 215.5C118 226.822 127.178 236 138.5 236Z" fill="white"/>
<defs>
<linearGradient id="paint0_linear_2232_12378" x1="268.634" y1="9.39634" x2="179.305" y2="412.654" gradientUnits="userSpaceOnUse">
<stop stop-color="white"/>
<stop offset="1" stop-color="#FF927A"/>
</linearGradient>
</defs>
</svg>
