<svg width="335" height="334" viewBox="0 0 335 334" fill="none" xmlns="http://www.w3.org/2000/svg">
<circle cx="167.631" cy="166.996" r="117.95" transform="rotate(-45 167.631 166.996)" fill="white"/>
<path d="M249.018 155.19H241.167C238.101 155.19 235.299 153.529 233.818 150.866L220.178 119.148C218.116 115.431 214.204 113.137 209.974 113.137H133.79C129.772 113.137 126.018 115.193 123.904 118.594L103.443 151.235C101.91 153.687 99.2137 155.163 96.3323 155.163H85.2827C78.8326 155.163 73.625 160.384 73.625 166.791V187.936C73.625 194.369 78.8591 199.563 85.2827 199.563H249.018C255.468 199.563 260.676 194.343 260.676 187.936V166.791C260.676 160.357 255.442 155.163 249.018 155.163V155.19Z" fill="#F7451E"/>
<path d="M249.018 155.19H241.167C238.101 155.19 235.299 153.529 233.818 150.866L220.178 119.148C218.116 115.431 214.204 113.137 209.974 113.137H133.79C129.772 113.137 126.018 115.193 123.904 118.594L103.443 151.235C101.91 153.687 99.2137 155.163 96.3323 155.163H85.2827C78.8326 155.163 73.625 160.384 73.625 166.791V187.936C73.625 194.369 78.8591 199.563 85.2827 199.563H249.018C255.468 199.563 260.676 194.343 260.676 187.936V166.791C260.676 160.357 255.442 155.163 249.018 155.163V155.19Z" fill="url(#paint0_linear_3093_3029)"/>
<path d="M209.467 147.061L202.335 128.732C201.382 127.01 199.554 125.924 197.594 125.924L184.914 125.924C181.921 125.924 179.484 128.361 179.484 131.354V149.683C179.484 152.676 181.921 155.113 184.914 155.113H204.726C208.858 155.113 211.48 150.689 209.467 147.061Z" fill="white"/>
<path d="M136.919 128.494L125.451 146.822C123.199 150.425 125.795 155.113 130.059 155.113H159.963C162.956 155.113 165.393 152.676 165.393 149.683V131.354C165.393 128.361 162.956 125.924 159.963 125.924H141.502C139.621 125.924 137.899 126.878 136.893 128.467L136.919 128.494Z" fill="white"/>
<path d="M85.0569 164.375H78.2188C77.3796 164.375 76.6992 165.791 76.6992 167.538V174.793C76.6992 176.54 77.3796 177.956 78.2188 177.956H85.0569C85.8962 177.956 86.5765 176.54 86.5765 174.793V167.538C86.5765 165.791 85.8962 164.375 85.0569 164.375Z" fill="#DF2800"/>
<path d="M256.065 164.375H249.227C248.387 164.375 247.707 165.791 247.707 167.538V174.793C247.707 176.54 248.387 177.956 249.227 177.956H256.065C256.904 177.956 257.584 176.54 257.584 174.793V167.538C257.584 165.791 256.904 164.375 256.065 164.375Z" fill="#DF2800"/>
<path d="M73.625 187.833H260.676C260.676 192.263 257.085 195.859 252.656 195.859H81.6452C77.2158 195.859 73.625 192.263 73.625 187.833Z" fill="#DF2800"/>
<path d="M119.313 214.996C130.905 214.996 140.303 205.737 140.303 194.315C140.303 182.894 130.905 173.635 119.313 173.635C107.721 173.635 98.3242 182.894 98.3242 194.315C98.3242 205.737 107.721 214.996 119.313 214.996Z" fill="#FA3713"/>
<path d="M213.759 214.996C225.351 214.996 234.748 205.737 234.748 194.315C234.748 182.894 225.351 173.635 213.759 173.635C202.167 173.635 192.77 182.894 192.77 194.315C192.77 205.737 202.167 214.996 213.759 214.996Z" fill="#FA3713"/>
<rect x="86.5859" y="199.563" width="153.098" height="20.9892" fill="white"/>
<path d="M213.854 212.305C223.875 212.305 231.998 204.182 231.998 194.162C231.998 184.142 223.875 176.019 213.854 176.019C203.834 176.019 195.711 184.142 195.711 194.162C195.711 204.182 203.834 212.305 213.854 212.305Z" fill="#DF2800"/>
<path d="M213.752 203.267C218.525 203.267 222.395 199.26 222.395 194.316C222.395 189.372 218.525 185.365 213.752 185.365C208.979 185.365 205.109 189.372 205.109 194.316C205.109 199.26 208.979 203.267 213.752 203.267Z" fill="#FFF1F1"/>
<path d="M119.405 212.305C129.426 212.305 137.549 204.182 137.549 194.162C137.549 184.142 129.426 176.019 119.405 176.019C109.385 176.019 101.262 184.142 101.262 194.162C101.262 204.182 109.385 212.305 119.405 212.305Z" fill="#DF2800"/>
<path d="M119.307 203.267C124.08 203.267 127.949 199.26 127.949 194.316C127.949 189.372 124.08 185.365 119.307 185.365C114.534 185.365 110.664 189.372 110.664 194.316C110.664 199.26 114.534 203.267 119.307 203.267Z" fill="#FFF1F1"/>
<defs>
<linearGradient id="paint0_linear_3093_3029" x1="167.459" y1="163.758" x2="167.15" y2="199.563" gradientUnits="userSpaceOnUse">
<stop stop-color="#F7451E"/>
<stop offset="1" stop-color="#FF1E00"/>
</linearGradient>
</defs>
</svg>
