<svg width="116" height="41" viewBox="0 0 116 41" fill="none" xmlns="http://www.w3.org/2000/svg">
<path d="M38.4815 20.054H32.2753V40.3892H27.7417V0.643054H32.2753V16.3126H38.4815V20.054ZM15.4173 12.1752C15.4173 18.2933 19.3347 25.4239 25.3648 28.2409L22.8559 31.8062C18.4104 29.6934 15.0211 25.4239 13.2165 20.274C11.4559 25.82 7.97864 30.5737 3.35699 32.8185L0.760067 29.2092C6.87825 26.2602 10.8837 18.7335 10.8837 12.1752V8.3458H2.21258V4.60446H23.8243V8.3458H15.4173V12.1752ZM70.3894 11.2948V0.68707H74.923V29.7374H70.3894V15.0362H63.1708V11.2948H70.3894ZM63.3909 24.1034C58.9894 22.5629 55.8202 19.4818 54.1036 15.5644C52.343 19.9659 49.0418 23.3551 44.2881 24.9837L41.9553 21.4185C48.1175 19.3057 51.7268 13.9798 51.7268 8.65391V7.28942H43.3198V3.63612H64.5794V7.28942H56.3044V8.65391C56.3044 13.5396 59.6496 18.4694 65.6357 20.5822L63.3909 24.1034ZM75.9354 35.9436V39.6409H49.1739V27.2285H53.7075V35.9436H75.9354ZM115.414 0.643054V40.4332H110.836V20.01H102.297V16.2686H110.836V0.643054H115.414ZM102.473 4.82454C102.473 16.4887 98.2039 26.4803 84.6911 33.1706L82.2702 29.6494C92.6139 24.4995 97.1475 17.5451 97.8518 8.52186H84.0308V4.82454H102.473Z" fill="white"/>
</svg>
