<svg width="91" height="172" viewBox="0 0 91 172" fill="none" xmlns="http://www.w3.org/2000/svg">
<path d="M77.4903 32.7866H13.5097C6.04848 32.7866 0 38.8545 0 46.3395V126.15C0 133.635 6.04848 139.702 13.5097 139.702H77.4903C84.9515 139.702 91 133.635 91 126.15V46.3395C91 38.8545 84.9515 32.7866 77.4903 32.7866Z" fill="#58D53C"/>
<path d="M19.5135 167.222C19.877 169.959 22.2042 172 24.9549 172H66.0422C68.7929 172 71.12 169.955 71.4835 167.222L74.4778 144.699C74.6839 143.15 73.4809 141.77 71.922 141.77H19.0788C17.5199 141.77 16.3169 143.146 16.523 144.699L19.5173 167.222H19.5135Z" fill="#58D53C"/>
<path d="M71.4873 4.7783C71.1238 2.04516 68.7966 0 66.046 0H45.5023H24.9586C22.208 0 19.8808 2.04516 19.5173 4.7783L16.523 27.3013C16.3169 28.8503 17.5199 30.23 19.0788 30.23H45.5023H71.9257C73.4847 30.23 74.6876 28.854 74.4815 27.3013L71.4873 4.7783Z" fill="#58D53C"/>
<path d="M71.5795 40.9897H19.4221C13.2131 40.9897 8.17969 46.0393 8.17969 52.2682V119.984C8.17969 126.213 13.2131 131.262 19.4221 131.262H71.5795C77.7885 131.262 82.8219 126.213 82.8219 119.984V52.2682C82.8219 46.0393 77.7885 40.9897 71.5795 40.9897Z" fill="white"/>
</svg>
